<svg xmlns="http://www.w3.org/2000/svg" viewBox="0 0 160 130" fill="none">
  <!-- Left sock/boot -->
  <path d="M22 8 L62 8 L62 72 Q62 82 70 86 L88 96 Q96 100 96 110 L96 120 Q96 126 90 126 L30 126 Q22 126 22 118 L22 88 Q22 82 18 78 L12 72 Q6 66 10 58 L22 48 Z" fill="#d06a2b"/>
  <!-- Right sock/boot -->
  <path d="M92 8 L132 8 L148 46 Q152 56 146 64 L140 70 Q136 74 136 80 L136 118 Q136 126 128 126 L110 126 Q104 126 104 120 L104 112 Q104 102 112 98 L128 90 Q136 86 136 76 L136 10 Z" fill="#d06a2b"/>
</svg>
