<?xml version="1.0" encoding="UTF-8"?>
<svg id="Layer_3" data-name="Layer 3" xmlns="http://www.w3.org/2000/svg" viewBox="0 0 1496.69 1079.95">
  <defs>
    <style>
      .cls-1 {
        fill: #339;
      }
    </style>
  </defs>
  <g id="Layer_1" data-name="Layer 1">
    <g>
      <path class="cls-1" d="M77.16,954.98c-12.86,0-24.11-1.86-33.76-5.57-9.64-3.71-17.68-8.46-24.11-14.28-6.44-5.81-11.26-12.24-14.47-19.29-3.22-7.05-4.82-14.03-4.82-20.96v-171.39c0-6.92,1.6-13.91,4.82-20.96,3.21-7.05,8.03-13.48,14.47-19.29,6.43-5.81,14.47-10.57,24.11-14.28,9.65-3.71,20.9-5.56,33.76-5.56s24.11,1.85,33.76,5.56c9.65,3.71,17.68,8.41,24.11,14.1,6.43,5.69,11.25,12.12,14.47,19.29,3.21,7.18,4.82,14.1,4.82,20.77v172.13c0,6.68-1.61,13.6-4.82,20.77-3.22,7.18-8.04,13.6-14.47,19.29-6.43,5.69-14.47,10.39-24.11,14.1-9.64,3.71-20.9,5.57-33.76,5.57ZM77.16,675.64c-10.14,0-17.93,2.54-23.37,7.61-5.44,5.07-9.4,11.01-11.87,17.81-2.47,6.8-3.9,13.54-4.26,20.21-.37,6.68-.55,11.75-.55,15.21v145.42c0,3.22.18,8.22.55,15.03.37,6.81,1.79,13.6,4.26,20.4,2.47,6.8,6.43,12.74,11.87,17.8,5.44,5.07,13.23,7.61,23.37,7.61s17.93-2.47,23.37-7.42c5.44-4.94,9.46-10.76,12.06-17.43,2.6-6.68,4.08-13.41,4.45-20.22.37-6.8.56-12.06.56-15.77v-145.42c0-3.71-.19-8.96-.56-15.77-.37-6.8-1.85-13.54-4.45-20.22-2.6-6.68-6.62-12.48-12.06-17.43-5.44-4.94-13.23-7.42-23.37-7.42Z"/>
      <path class="cls-1" d="M568.74,949.79c-6.68,0-13.04-1.23-19.1-3.71-6.07-2.47-11.38-5.87-15.95-10.2-4.58-4.32-8.16-9.46-10.76-15.4-2.6-5.93-3.9-12.36-3.9-19.29v-186.97c0-6.92,1.36-13.35,4.08-19.29,2.72-5.93,6.37-11.13,10.95-15.58,4.57-4.45,9.89-7.98,15.95-10.57,6.06-2.6,12.42-3.9,19.11-3.9h88.29c-3.47,11.38-6.44,20.84-8.9,28.38-2.48,7.55-4.45,13.67-5.94,18.36-1.48,4.7-2.72,8.04-3.71,10.02-.99,1.98-1.73,2.97-2.22,2.97-.99,0-1.73-2.47-2.23-7.42-.5-4.95-1.67-10.39-3.53-16.32-1.85-5.94-4.82-11.37-8.9-16.32-4.08-4.94-10.2-7.42-18.36-7.42h-21.14c-5.44,0-9.89,1.92-13.35,5.75-3.47,3.84-6.25,8.41-8.35,13.73-2.1,5.32-3.53,10.82-4.26,16.5-.74,5.69-1.11,10.39-1.11,14.1v161c0,3.71.31,8.34.93,13.91.61,5.57,1.85,11.01,3.71,16.32,1.85,5.32,4.57,9.83,8.16,13.54,3.58,3.71,8.34,5.57,14.28,5.57h26.34c4.45,0,9.15-2.04,14.1-6.12,4.94-4.08,9.64-8.53,14.1-13.35,4.45-4.82,8.47-9.28,12.06-13.36,3.58-4.08,6.24-6.12,7.98-6.12.99,0,1.61.87,1.86,2.6.24,1.73,0,4.58-.74,8.53-.74,3.96-1.92,9.22-3.53,15.77-1.61,6.56-3.77,14.66-6.49,24.3h-79.39Z"/>
      <path class="cls-1" d="M750.84,956.47c-12.86,0-24.11-1.86-33.76-5.57-9.64-3.71-17.68-8.46-24.11-14.28-6.44-5.81-11.26-12.24-14.47-19.29-3.22-7.05-4.82-14.03-4.82-20.96v-171.39c0-6.92,1.6-13.91,4.82-20.96,3.21-7.05,8.03-13.48,14.47-19.29,6.43-5.81,14.47-10.57,24.11-14.28,9.65-3.71,20.9-5.56,33.76-5.56s24.11,1.85,33.76,5.56c9.65,3.71,17.68,8.41,24.11,14.1,6.43,5.69,11.25,12.12,14.47,19.29,3.21,7.18,4.82,14.1,4.82,20.77v172.13c0,6.68-1.61,13.6-4.82,20.77-3.22,7.18-8.04,13.6-14.47,19.29-6.43,5.69-14.47,10.39-24.11,14.1-9.64,3.71-20.9,5.57-33.76,5.57ZM750.84,677.13c-10.14,0-17.93,2.54-23.37,7.61-5.44,5.07-9.4,11.01-11.87,17.81-2.47,6.8-3.9,13.54-4.26,20.21-.37,6.68-.55,11.75-.55,15.21v145.42c0,3.22.18,8.22.55,15.03.37,6.81,1.79,13.6,4.26,20.4,2.47,6.8,6.43,12.74,11.87,17.8,5.44,5.07,13.23,7.61,23.37,7.61s17.93-2.47,23.37-7.42c5.44-4.94,9.46-10.76,12.06-17.43,2.6-6.68,4.08-13.41,4.45-20.22.37-6.8.56-12.06.56-15.77v-145.42c0-3.71-.19-8.96-.56-15.77-.37-6.8-1.85-13.54-4.45-20.22-2.6-6.68-6.62-12.48-12.06-17.43-5.44-4.94-13.23-7.42-23.37-7.42Z"/>
      <path class="cls-1" d="M836.61,664.89h62.7c2.72.5,3.58.81,2.6.93-.99.13-2.66.99-5.01,2.6-2.36,1.61-4.76,4.58-7.24,8.9-2.47,4.33-3.71,10.82-3.71,19.48v178.06c0,8.66.68,16.82,2.04,24.48,1.35,7.67,3.65,14.35,6.86,20.03,3.21,5.69,7.61,10.14,13.17,13.35,5.57,3.22,12.43,4.82,20.59,4.82,15.33,0,26.15-5.57,32.46-16.69,6.31-11.13,9.46-26.09,9.46-44.89v-179.18c0-8.65-1.24-15.15-3.71-19.48-2.48-4.32-4.89-7.29-7.24-8.9-2.35-1.61-4.02-2.47-5.01-2.6-.99-.12-.12-.43,2.6-.93h38.95c2.72.5,3.58.81,2.6.93-.99.13-2.66.99-5.01,2.6-2.35,1.61-4.76,4.58-7.23,8.9-2.48,4.33-3.71,10.82-3.71,19.48v178.44c0,9.64-.87,18.92-2.6,27.82-1.73,8.9-4.95,16.82-9.65,23.74-4.7,6.93-11.26,12.49-19.66,16.69-8.41,4.21-19.29,6.31-32.64,6.31-21.27,0-37.97-5.94-50.08-17.81-12.12-11.87-18.18-30.79-18.18-56.75v-178.44c0-8.65-1.24-15.15-3.71-19.48-2.48-4.32-4.89-7.29-7.24-8.9-2.35-1.61-4.02-2.47-5.01-2.6-.98-.12-.12-.43,2.6-.93Z"/>
      <path class="cls-1" d="M1015.34,696.79c0-8.65-1.24-15.15-3.71-19.48-2.48-4.32-4.89-7.29-7.24-8.9-2.35-1.61-4.02-2.47-5.01-2.6-.98-.12-.12-.43,2.6-.93h79.02c12.61,0,24.05,1.48,34.32,4.45,10.26,2.97,19.1,7.6,26.52,13.91,7.42,6.31,13.1,14.47,17.06,24.48,3.96,10.02,5.94,22.07,5.94,36.17,0,9.89-1.11,19.42-3.34,28.56-2.23,9.15-5.69,17.44-10.39,24.85-4.7,7.42-10.76,13.67-18.18,18.74-7.42,5.07-16.45,8.59-27.08,10.57,9.4,1.73,17.25,5.19,23.56,10.39,6.31,5.19,11.5,11.75,15.58,19.66,4.08,7.92,6.99,17.06,8.72,27.45,1.73,10.39,2.6,21.65,2.6,33.76,0,8.66,1.23,15.16,3.71,19.48,2.47,4.33,4.88,7.3,7.24,8.9,2.35,1.61,4.02,2.48,5.01,2.6.98.13.12.43-2.6.93h-49.34v-37.47c0-15.33-1.24-28.13-3.71-38.39-2.48-10.26-5.63-18.49-9.46-24.67-3.84-6.18-8.16-10.63-12.98-13.36-4.82-2.72-9.59-4.08-14.28-4.08-6.43,0-12.3,1.86-17.62,5.56-5.32,3.71-8.97,8.41-10.95,14.1v66.4c0,8.66,1.24,15.16,3.71,19.48,2.47,4.33,4.88,7.3,7.24,8.9,2.35,1.61,4.02,2.48,5.01,2.6.98.13.12.43-2.6.93h-62.7c-2.72-.49-3.58-.8-2.6-.93.99-.12,2.66-.98,5.01-2.6,2.35-1.6,4.76-4.57,7.24-8.9,2.47-4.32,3.71-10.81,3.71-19.48v-221.09ZM1051.32,839.24c2.23-6.92,5.62-11.81,10.2-14.65,4.57-2.84,9.65-5.19,15.21-7.05,5.56-1.85,11.25-3.83,17.06-5.94,5.81-2.1,11.13-5.81,15.95-11.13,4.82-5.32,8.78-12.86,11.87-22.63,3.09-9.77,4.64-23.19,4.64-40.25,0-20.77-4.58-36.04-13.73-45.81-9.15-9.77-24.24-14.65-45.25-14.65h-15.95v162.11Z"/>
      <path class="cls-1" d="M1255.5,664.89h74.56c-2.23,9.15-4.14,16.76-5.75,22.82-1.61,6.06-3.1,10.94-4.45,14.65-1.36,3.71-2.54,6.37-3.52,7.98-.99,1.61-1.98,2.41-2.97,2.41-1.48,0-3.15-1.85-5.01-5.56-1.85-3.71-4.26-7.79-7.23-12.24-2.97-4.45-6.86-8.53-11.69-12.24-4.82-3.71-11.07-5.56-18.74-5.56-8.16,0-15.27,1.61-21.33,4.82-6.06,3.22-11.01,7.55-14.84,12.98-3.84,5.44-6.68,11.57-8.53,18.37-1.85,6.8-2.78,13.79-2.78,20.96,0,13.6,2.72,24.11,8.16,31.53,5.44,7.42,12.18,13.42,20.22,17.99,8.03,4.58,16.69,8.72,25.97,12.42,9.27,3.71,17.93,8.6,25.97,14.66,8.03,6.06,14.71,14.28,20.03,24.67,5.32,10.39,7.98,24.61,7.98,42.66,0,9.15-1.92,18.05-5.75,26.71-3.84,8.66-9.34,16.32-16.51,23-7.18,6.68-15.77,12-25.78,15.95-10.01,3.96-21.21,5.94-33.57,5.94h-58.24c-.99-18.3-1.67-32.46-2.04-42.48-.37-10.01-.43-17.06-.18-21.14.24-4.08.93-5.62,2.04-4.64,1.11.99,2.72,3.41,4.82,7.24,2.1,3.84,4.69,8.53,7.79,14.1,3.09,5.56,6.86,10.94,11.32,16.13,4.45,5.19,9.52,9.59,15.21,13.17,5.68,3.59,12.24,5.38,19.66,5.38,8.16,0,15.15-1.73,20.96-5.19,5.81-3.46,10.57-7.98,14.28-13.54,3.71-5.56,6.43-11.87,8.16-18.92,1.73-7.05,2.6-14.16,2.6-21.33,0-12.61-2.78-22.38-8.34-29.3-5.57-6.92-12.55-12.61-20.96-17.07-8.41-4.45-17.5-8.53-27.27-12.24-9.77-3.71-18.86-8.72-27.27-15.03-8.41-6.31-15.4-14.71-20.96-25.22-5.56-10.51-8.34-24.79-8.34-42.85,0-9.4,1.6-18.42,4.82-27.08,3.21-8.65,7.91-16.32,14.1-23,6.18-6.68,13.78-11.99,22.81-15.95,9.02-3.96,19.23-5.94,30.61-5.94Z"/>
      <path class="cls-1" d="M1389.48,805.85c0,4.21.49,7.18,1.48,8.9.99,1.73,2.47,2.6,4.45,2.6s4.45-.61,7.42-1.85c2.97-1.24,6.36-2.72,10.2-4.45,3.84-1.73,8.1-3.58,12.8-5.56,4.69-1.98,9.77-3.71,15.21-5.19,7.66-1.98,13.6-4.64,17.81-7.98,4.2-3.34,7.36-6.3,9.46-8.9,2.1-2.6,3.4-4.32,3.9-5.19.49-.86.74.18.74,3.15v54.91c-.25,1.73-.62,2.6-1.11,2.6-.74,0-1.8-1.05-3.16-3.16-1.36-2.1-3.28-4.45-5.75-7.05-2.48-2.6-5.44-4.94-8.9-7.05-3.47-2.1-7.79-3.15-12.98-3.15s-11.19.62-17.25,1.85c-6.06,1.24-11.63,3.16-16.69,5.75-5.07,2.6-9.27,6-12.61,10.2-3.34,4.2-5.01,9.27-5.01,15.21v66.4c0,4.45.31,8.29.93,11.5.61,3.22,1.54,5.94,2.78,8.16h31.16c12.36,0,22.69-2.04,30.98-6.12,8.28-4.08,14.96-8.77,20.03-14.1,5.07-5.31,8.9-10.57,11.5-15.77,2.6-5.19,4.39-8.84,5.38-10.95.99-2.1,1.54-1.91,1.67.56.12,2.47.18,8.66.18,18.55v40.06h-153.95c-2.72-.49-3.58-.8-2.6-.93.99-.12,2.66-.98,5.01-2.6,2.35-1.6,4.76-4.57,7.24-8.9,2.47-4.32,3.71-10.81,3.71-19.48v-221.09c0-8.65-1.24-15.15-3.71-19.48-2.48-4.32-4.89-7.29-7.24-8.9-2.35-1.61-4.02-2.47-5.01-2.6-.98-.12-.12-.43,2.6-.93h156.55c-1.48,10.39-2.73,19.17-3.71,26.34-.99,7.18-1.85,12.93-2.6,17.25-.74,4.33-1.36,7.42-1.85,9.27-.5,1.85-.99,2.78-1.49,2.78-.99,0-2.41-2.28-4.26-6.86-1.85-4.57-4.88-9.52-9.09-14.84-4.21-5.31-10.02-10.26-17.43-14.84-7.42-4.57-17.19-6.86-29.31-6.86h-33.76c-1.24,2.22-2.17,4.95-2.78,8.16-.62,3.22-.93,7.05-.93,11.5v109.06Z"/>
      <path class="cls-1" d="M77.16,954.98c-12.86,0-24.11-1.86-33.76-5.57-9.64-3.71-17.68-8.46-24.11-14.28-6.44-5.81-11.26-12.24-14.47-19.29-3.22-7.05-4.82-14.03-4.82-20.96v-171.39c0-6.92,1.6-13.91,4.82-20.96,3.21-7.05,8.03-13.48,14.47-19.29,6.43-5.81,14.47-10.57,24.11-14.28,9.65-3.71,20.9-5.56,33.76-5.56s24.11,1.85,33.76,5.56c9.65,3.71,17.68,8.41,24.11,14.1,6.43,5.69,11.25,12.12,14.47,19.29,3.21,7.18,4.82,14.1,4.82,20.77v172.13c0,6.68-1.61,13.6-4.82,20.77-3.22,7.18-8.04,13.6-14.47,19.29-6.43,5.69-14.47,10.39-24.11,14.1-9.64,3.71-20.9,5.57-33.76,5.57ZM77.16,675.64c-10.14,0-17.93,2.54-23.37,7.61-5.44,5.07-9.4,11.01-11.87,17.81-2.47,6.8-3.9,13.54-4.26,20.21-.37,6.68-.55,11.75-.55,15.21v145.42c0,3.22.18,8.22.55,15.03.37,6.81,1.79,13.6,4.26,20.4,2.47,6.8,6.43,12.74,11.87,17.8,5.44,5.07,13.23,7.61,23.37,7.61s17.93-2.47,23.37-7.42c5.44-4.94,9.46-10.76,12.06-17.43,2.6-6.68,4.08-13.41,4.45-20.22.37-6.8.56-12.06.56-15.77v-145.42c0-3.71-.19-8.96-.56-15.77-.37-6.8-1.85-13.54-4.45-20.22-2.6-6.68-6.62-12.48-12.06-17.43-5.44-4.94-13.23-7.42-23.37-7.42Z"/>
      <path class="cls-1" d="M568.74,949.79c-6.68,0-13.04-1.23-19.1-3.71-6.07-2.47-11.38-5.87-15.95-10.2-4.58-4.32-8.16-9.46-10.76-15.4-2.6-5.93-3.9-12.36-3.9-19.29v-186.97c0-6.92,1.36-13.35,4.08-19.29,2.72-5.93,6.37-11.13,10.95-15.58,4.57-4.45,9.89-7.98,15.95-10.57,6.06-2.6,12.42-3.9,19.11-3.9h88.29c-3.47,11.38-6.44,20.84-8.9,28.38-2.48,7.55-4.45,13.67-5.94,18.36-1.48,4.7-2.72,8.04-3.71,10.02-.99,1.98-1.73,2.97-2.22,2.97-.99,0-1.73-2.47-2.23-7.42-.5-4.95-1.67-10.39-3.53-16.32-1.85-5.94-4.82-11.37-8.9-16.32-4.08-4.94-10.2-7.42-18.36-7.42h-21.14c-5.44,0-9.89,1.92-13.35,5.75-3.47,3.84-6.25,8.41-8.35,13.73-2.1,5.32-3.53,10.82-4.26,16.5-.74,5.69-1.11,10.39-1.11,14.1v161c0,3.71.31,8.34.93,13.91.61,5.57,1.85,11.01,3.71,16.32,1.85,5.32,4.57,9.83,8.16,13.54,3.58,3.71,8.34,5.57,14.28,5.57h26.34c4.45,0,9.15-2.04,14.1-6.12,4.94-4.08,9.64-8.53,14.1-13.35,4.45-4.82,8.47-9.28,12.06-13.36,3.58-4.08,6.24-6.12,7.98-6.12.99,0,1.61.87,1.86,2.6.24,1.73,0,4.58-.74,8.53-.74,3.96-1.92,9.22-3.53,15.77-1.61,6.56-3.77,14.66-6.49,24.3h-79.39Z"/>
      <path class="cls-1" d="M750.84,956.47c-12.86,0-24.11-1.86-33.76-5.57-9.64-3.71-17.68-8.46-24.11-14.28-6.44-5.81-11.26-12.24-14.47-19.29-3.22-7.05-4.82-14.03-4.82-20.96v-171.39c0-6.92,1.6-13.91,4.82-20.96,3.21-7.05,8.03-13.48,14.47-19.29,6.43-5.81,14.47-10.57,24.11-14.28,9.65-3.71,20.9-5.56,33.76-5.56s24.11,1.85,33.76,5.56c9.65,3.71,17.68,8.41,24.11,14.1,6.43,5.69,11.25,12.12,14.47,19.29,3.21,7.18,4.82,14.1,4.82,20.77v172.13c0,6.68-1.61,13.6-4.82,20.77-3.22,7.18-8.04,13.6-14.47,19.29-6.43,5.69-14.47,10.39-24.11,14.1-9.64,3.71-20.9,5.57-33.76,5.57ZM750.84,677.13c-10.14,0-17.93,2.54-23.37,7.61-5.44,5.07-9.4,11.01-11.87,17.81-2.47,6.8-3.9,13.54-4.26,20.21-.37,6.68-.55,11.75-.55,15.21v145.42c0,3.22.18,8.22.55,15.03.37,6.81,1.79,13.6,4.26,20.4,2.47,6.8,6.43,12.74,11.87,17.8,5.44,5.07,13.23,7.61,23.37,7.61s17.93-2.47,23.37-7.42c5.44-4.94,9.46-10.76,12.06-17.43,2.6-6.68,4.08-13.41,4.45-20.22.37-6.8.56-12.06.56-15.77v-145.42c0-3.71-.19-8.96-.56-15.77-.37-6.8-1.85-13.54-4.45-20.22-2.6-6.68-6.62-12.48-12.06-17.43-5.44-4.94-13.23-7.42-23.37-7.42Z"/>
      <path class="cls-1" d="M836.61,664.89h62.7c2.72.5,3.58.81,2.6.93-.99.13-2.66.99-5.01,2.6-2.36,1.61-4.76,4.58-7.24,8.9-2.47,4.33-3.71,10.82-3.71,19.48v178.06c0,8.66.68,16.82,2.04,24.48,1.35,7.67,3.65,14.35,6.86,20.03,3.21,5.69,7.61,10.14,13.17,13.35,5.57,3.22,12.43,4.82,20.59,4.82,15.33,0,26.15-5.57,32.46-16.69,6.31-11.13,9.46-26.09,9.46-44.89v-179.18c0-8.65-1.24-15.15-3.71-19.48-2.48-4.32-4.89-7.29-7.24-8.9-2.35-1.61-4.02-2.47-5.01-2.6-.99-.12-.12-.43,2.6-.93h38.95c2.72.5,3.58.81,2.6.93-.99.13-2.66.99-5.01,2.6-2.35,1.61-4.76,4.58-7.23,8.9-2.48,4.33-3.71,10.82-3.71,19.48v178.44c0,9.64-.87,18.92-2.6,27.82-1.73,8.9-4.95,16.82-9.65,23.74-4.7,6.93-11.26,12.49-19.66,16.69-8.41,4.21-19.29,6.31-32.64,6.31-21.27,0-37.97-5.94-50.08-17.81-12.12-11.87-18.18-30.79-18.18-56.75v-178.44c0-8.65-1.24-15.15-3.71-19.48-2.48-4.32-4.89-7.29-7.24-8.9-2.35-1.61-4.02-2.47-5.01-2.6-.98-.12-.12-.43,2.6-.93Z"/>
      <path class="cls-1" d="M1015.34,696.79c0-8.65-1.24-15.15-3.71-19.48-2.48-4.32-4.89-7.29-7.24-8.9-2.35-1.61-4.02-2.47-5.01-2.6-.98-.12-.12-.43,2.6-.93h79.02c12.61,0,24.05,1.48,34.32,4.45,10.26,2.97,19.1,7.6,26.52,13.91,7.42,6.31,13.1,14.47,17.06,24.48,3.96,10.02,5.94,22.07,5.94,36.17,0,9.89-1.11,19.42-3.34,28.56-2.23,9.15-5.69,17.44-10.39,24.85-4.7,7.42-10.76,13.67-18.18,18.74-7.42,5.07-16.45,8.59-27.08,10.57,9.4,1.73,17.25,5.19,23.56,10.39,6.31,5.19,11.5,11.75,15.58,19.66,4.08,7.92,6.99,17.06,8.72,27.45,1.73,10.39,2.6,21.65,2.6,33.76,0,8.66,1.23,15.16,3.71,19.48,2.47,4.33,4.88,7.3,7.24,8.9,2.35,1.61,4.02,2.48,5.01,2.6.98.13.12.43-2.6.93h-49.34v-37.47c0-15.33-1.24-28.13-3.71-38.39-2.48-10.26-5.63-18.49-9.46-24.67-3.84-6.18-8.16-10.63-12.98-13.36-4.82-2.72-9.59-4.08-14.28-4.08-6.43,0-12.3,1.86-17.62,5.56-5.32,3.71-8.97,8.41-10.95,14.1v66.4c0,8.66,1.24,15.16,3.71,19.48,2.47,4.33,4.88,7.3,7.24,8.9,2.35,1.61,4.02,2.48,5.01,2.6.98.13.12.43-2.6.93h-62.7c-2.72-.49-3.58-.8-2.6-.93.99-.12,2.66-.98,5.01-2.6,2.35-1.6,4.76-4.57,7.24-8.9,2.47-4.32,3.71-10.81,3.71-19.48v-221.09ZM1051.32,839.24c2.23-6.92,5.62-11.81,10.2-14.65,4.57-2.84,9.65-5.19,15.21-7.05,5.56-1.85,11.25-3.83,17.06-5.94,5.81-2.1,11.13-5.81,15.95-11.13,4.82-5.32,8.78-12.86,11.87-22.63,3.09-9.77,4.64-23.19,4.64-40.25,0-20.77-4.58-36.04-13.73-45.81-9.15-9.77-24.24-14.65-45.25-14.65h-15.95v162.11Z"/>
      <path class="cls-1" d="M1255.5,664.89h74.56c-2.23,9.15-4.14,16.76-5.75,22.82-1.61,6.06-3.1,10.94-4.45,14.65-1.36,3.71-2.54,6.37-3.52,7.98-.99,1.61-1.98,2.41-2.97,2.41-1.48,0-3.15-1.85-5.01-5.56-1.85-3.71-4.26-7.79-7.23-12.24-2.97-4.45-6.86-8.53-11.69-12.24-4.82-3.71-11.07-5.56-18.74-5.56-8.16,0-15.27,1.61-21.33,4.82-6.06,3.22-11.01,7.55-14.84,12.98-3.84,5.44-6.68,11.57-8.53,18.37-1.85,6.8-2.78,13.79-2.78,20.96,0,13.6,2.72,24.11,8.16,31.53,5.44,7.42,12.18,13.42,20.22,17.99,8.03,4.58,16.69,8.72,25.97,12.42,9.27,3.71,17.93,8.6,25.97,14.66,8.03,6.06,14.71,14.28,20.03,24.67,5.32,10.39,7.98,24.61,7.98,42.66,0,9.15-1.92,18.05-5.75,26.71-3.84,8.66-9.34,16.32-16.51,23-7.18,6.68-15.77,12-25.78,15.95-10.01,3.96-21.21,5.94-33.57,5.94h-58.24c-.99-18.3-1.67-32.46-2.04-42.48-.37-10.01-.43-17.06-.18-21.14.24-4.08.93-5.62,2.04-4.64,1.11.99,2.72,3.41,4.82,7.24,2.1,3.84,4.69,8.53,7.79,14.1,3.09,5.56,6.86,10.94,11.32,16.13,4.45,5.19,9.52,9.59,15.21,13.17,5.68,3.59,12.24,5.38,19.66,5.38,8.16,0,15.15-1.73,20.96-5.19,5.81-3.46,10.57-7.98,14.28-13.54,3.71-5.56,6.43-11.87,8.16-18.92,1.73-7.05,2.6-14.16,2.6-21.33,0-12.61-2.78-22.38-8.34-29.3-5.57-6.92-12.55-12.61-20.96-17.07-8.41-4.45-17.5-8.53-27.27-12.24-9.77-3.71-18.86-8.72-27.27-15.03-8.41-6.31-15.4-14.71-20.96-25.22-5.56-10.51-8.34-24.79-8.34-42.85,0-9.4,1.6-18.42,4.82-27.08,3.21-8.65,7.91-16.32,14.1-23,6.18-6.68,13.78-11.99,22.81-15.95,9.02-3.96,19.23-5.94,30.61-5.94Z"/>
      <path class="cls-1" d="M1389.48,805.85c0,4.21.49,7.18,1.48,8.9.99,1.73,2.47,2.6,4.45,2.6s4.45-.61,7.42-1.85c2.97-1.24,6.36-2.72,10.2-4.45,3.84-1.73,8.1-3.58,12.8-5.56,4.69-1.98,9.77-3.71,15.21-5.19,7.66-1.98,13.6-4.64,17.81-7.98,4.2-3.34,7.36-6.3,9.46-8.9,2.1-2.6,3.4-4.32,3.9-5.19.49-.86.74.18.74,3.15v54.91c-.25,1.73-.62,2.6-1.11,2.6-.74,0-1.8-1.05-3.16-3.16-1.36-2.1-3.28-4.45-5.75-7.05-2.48-2.6-5.44-4.94-8.9-7.05-3.47-2.1-7.79-3.15-12.98-3.15s-11.19.62-17.25,1.85c-6.06,1.24-11.63,3.16-16.69,5.75-5.07,2.6-9.27,6-12.61,10.2-3.34,4.2-5.01,9.27-5.01,15.21v66.4c0,4.45.31,8.29.93,11.5.61,3.22,1.54,5.94,2.78,8.16h31.16c12.36,0,22.69-2.04,30.98-6.12,8.28-4.08,14.96-8.77,20.03-14.1,5.07-5.31,8.9-10.57,11.5-15.77,2.6-5.19,4.39-8.84,5.38-10.95.99-2.1,1.54-1.91,1.67.56.12,2.47.18,8.66.18,18.55v40.06h-153.95c-2.72-.49-3.58-.8-2.6-.93.99-.12,2.66-.98,5.01-2.6,2.35-1.6,4.76-4.57,7.24-8.9,2.47-4.32,3.71-10.81,3.71-19.48v-221.09c0-8.65-1.24-15.15-3.71-19.48-2.48-4.32-4.89-7.29-7.24-8.9-2.35-1.61-4.02-2.47-5.01-2.6-.98-.12-.12-.43,2.6-.93h156.55c-1.48,10.39-2.73,19.17-3.71,26.34-.99,7.18-1.85,12.93-2.6,17.25-.74,4.33-1.36,7.42-1.85,9.27-.5,1.85-.99,2.78-1.49,2.78-.99,0-2.41-2.28-4.26-6.86-1.85-4.57-4.88-9.52-9.09-14.84-4.21-5.31-10.02-10.26-17.43-14.84-7.42-4.57-17.19-6.86-29.31-6.86h-33.76c-1.24,2.22-2.17,4.95-2.78,8.16-.62,3.22-.93,7.05-.93,11.5v109.06Z"/>
      <g>
        <path class="cls-1" d="M407.44,944.78c-2.36-1.6-4.77-4.57-7.24-8.9-2.48-4.32-3.71-10.81-3.71-19.48v-97.93c-11.99-2.6-23.99-5.19-35.98-7.79v105.72c0,8.66-1.24,15.16-3.71,19.48-2.48,4.33-4.89,7.3-7.24,8.9-2.35,1.61-4.02,2.48-5.01,2.6-.99.13-.13.43,2.6.93h62.69c2.72-.49,3.59-.8,2.6-.93-.99-.12-2.66-.98-5-2.6Z"/>
        <path class="cls-1" d="M347.15,663.39c-2.73.5-3.59.81-2.6.93.98.13,2.66.99,5.01,2.6,2.35,1.61,4.76,4.58,7.24,8.9,2.47,4.33,3.71,10.82,3.71,19.48v94.95c-36.17-7.66-92.02-25.27-133.83-22.09v-72.85c0-4.45.31-8.28.93-11.5.61-3.21,1.54-5.94,2.78-8.16h33.76c10.88,0,20.46,2.22,28.75,6.68,8.28,4.45,15.27,9.4,20.96,14.84,5.69,5.44,10.26,10.39,13.73,14.84,3.46,4.45,5.94,6.68,7.42,6.68.74,0,1.17-.93,1.3-2.78.12-1.86-.06-4.88-.56-9.09-.5-4.2-1.3-9.89-2.41-17.07-1.11-7.17-2.41-15.95-3.9-26.34h-152.09c-2.72.5-3.58.81-2.6.93.99.13,2.66.99,5.01,2.6,2.35,1.61,4.76,4.58,7.24,8.9,2.47,4.33,3.71,10.82,3.71,19.48v84.25c-15.38,11.11-23.41,31.22-18.72,65.26,1.98-9.02,6.82-24.88,20.07-38.18,9.33-9.37,23.55-18.19,47.73-21.93,85.51-13.21,178.46,55.25,215.08,24.3,5.99-5.06,12.79-14.74,13.73-35.16-19.99,18.17-45.81,22.38-72.1,21.09v-99.62c0-4.45.31-8.28.93-11.5.61-3.21,1.54-5.94,2.78-8.16h33.76c10.88,0,19.85,2.47,26.9,7.42,7.05,4.95,12.67,10.39,16.88,16.32,4.2,5.94,7.42,11.38,9.64,16.32,2.23,4.95,4.08,7.42,5.56,7.42.74,0,1.49-.98,2.23-2.97.74-1.98,1.48-5.31,2.23-10.02.74-4.69,1.6-10.82,2.6-18.36.98-7.54,2.23-17,3.71-28.38h-156.55Z"/>
        <path class="cls-1" d="M237.62,944.77c-2.36-1.6-4.76-4.57-7.24-8.9-2.47-4.32-3.71-10.81-3.71-19.48v-123.44c-5.66,1.47-12.46,3.83-19.69,7.73-6.65,3.59-12.05,7.61-16.29,11.33v104.38c0,8.66-1.24,15.16-3.71,19.48-2.48,4.33-4.89,7.3-7.24,8.9-2.35,1.61-4.02,2.48-5.01,2.6-.98.13-.12.43,2.6.93h62.7c2.72-.49,3.58-.8,2.6-.93-.99-.12-2.66-.98-5.01-2.6Z"/>
      </g>
    </g>
    <g>
      <path class="cls-1" d="M303.34,1007.42h15.57c.68.12.89.2.65.23-.25.03-.6.26-1.06.69-.46.43-.86,1.15-1.2,2.17-.34,1.01-.26,2.53.23,4.56l12.53,31.06,11.34-30.87c.86-2.03,1.24-3.55,1.15-4.56-.09-1.01-.31-1.75-.65-2.21-.34-.46-.6-.72-.78-.78-.18-.06.06-.15.74-.28h9.68c.68.12.83.22.46.28-.37.06-.98.34-1.84.83-.86.49-1.86,1.29-3,2.4-1.14,1.11-2.11,2.73-2.9,4.88l-12.63,34.28v20.27c0,2.15.31,3.76.92,4.84.61,1.08,1.21,1.81,1.8,2.21.58.4,1,.61,1.24.65.24.03.03.11-.65.23h-15.57c-.68-.12-.89-.2-.65-.23.24-.03.66-.24,1.24-.65.58-.4,1.18-1.14,1.8-2.21.61-1.07.92-2.69.92-4.84v-20.27l-14.01-34.83c-.8-2.03-1.66-3.55-2.58-4.56-.92-1.01-1.7-1.75-2.35-2.21-.65-.46-1.05-.72-1.2-.78-.15-.06.11-.15.78-.28Z"/>
      <path class="cls-1" d="M372.28,1079.12c-3.19,0-5.99-.46-8.39-1.38-2.4-.92-4.39-2.1-5.99-3.55-1.6-1.44-2.8-3.04-3.59-4.79-.8-1.75-1.2-3.49-1.2-5.21v-42.58c0-1.72.4-3.46,1.2-5.21.8-1.75,2-3.35,3.59-4.79,1.6-1.44,3.59-2.63,5.99-3.55,2.4-.92,5.19-1.38,8.39-1.38s5.99.46,8.39,1.38c2.4.92,4.39,2.09,5.99,3.5,1.6,1.41,2.79,3.01,3.59,4.79.8,1.78,1.2,3.5,1.2,5.16v42.76c0,1.66-.4,3.38-1.2,5.16-.8,1.78-2,3.38-3.59,4.79-1.6,1.41-3.59,2.58-5.99,3.5-2.4.92-5.19,1.38-8.39,1.38ZM372.28,1009.72c-2.52,0-4.46.63-5.81,1.89-1.35,1.26-2.34,2.73-2.95,4.42-.61,1.69-.97,3.36-1.06,5.02-.09,1.66-.14,2.92-.14,3.78v36.12c0,.8.05,2.04.14,3.73.09,1.69.45,3.38,1.06,5.07.61,1.69,1.6,3.16,2.95,4.42,1.35,1.26,3.29,1.89,5.81,1.89s4.45-.61,5.81-1.84c1.35-1.23,2.35-2.67,3-4.33s1.01-3.33,1.11-5.02c.09-1.69.14-3,.14-3.92v-36.12c0-.92-.05-2.23-.14-3.92-.09-1.69-.46-3.36-1.11-5.02s-1.64-3.1-3-4.33c-1.35-1.23-3.29-1.84-5.81-1.84Z"/>
      <path class="cls-1" d="M397.25,1007.51h15.57c.68.12.89.2.65.23-.25.03-.66.25-1.24.65-.58.4-1.18,1.14-1.8,2.21-.62,1.08-.92,2.69-.92,4.84v44.23c0,2.15.17,4.18.51,6.08.34,1.9.91,3.56,1.7,4.98.8,1.41,1.89,2.52,3.27,3.32,1.38.8,3.09,1.2,5.11,1.2,3.81,0,6.5-1.38,8.06-4.15,1.57-2.76,2.35-6.48,2.35-11.15v-44.51c0-2.15-.31-3.76-.92-4.84-.62-1.07-1.21-1.81-1.8-2.21-.58-.4-1-.61-1.24-.65-.25-.03-.03-.11.65-.23h9.68c.68.12.89.2.65.23-.25.03-.66.25-1.24.65-.58.4-1.18,1.14-1.8,2.21-.62,1.08-.92,2.69-.92,4.84v44.33c0,2.4-.22,4.7-.65,6.91-.43,2.21-1.23,4.18-2.4,5.9-1.17,1.72-2.8,3.1-4.88,4.15-2.09,1.05-4.79,1.57-8.11,1.57-5.28,0-9.43-1.47-12.44-4.42-3.01-2.95-4.52-7.65-4.52-14.1v-44.33c0-2.15-.31-3.76-.92-4.84-.62-1.07-1.21-1.81-1.8-2.21-.58-.4-1-.61-1.24-.65-.24-.03-.03-.11.65-.23Z"/>
      <path class="cls-1" d="M446.73,1015.44c0-2.15-.31-3.76-.92-4.84-.62-1.07-1.21-1.81-1.8-2.21-.58-.4-1-.61-1.24-.65-.24-.03-.03-.11.65-.23h19.63c3.13,0,5.97.37,8.52,1.11,2.55.74,4.75,1.89,6.59,3.46,1.84,1.57,3.26,3.59,4.24,6.08.98,2.49,1.47,5.48,1.47,8.99,0,2.46-.28,4.82-.83,7.1-.55,2.27-1.41,4.33-2.58,6.17-1.17,1.84-2.67,3.4-4.52,4.65-1.84,1.26-4.09,2.14-6.73,2.63,2.33.43,4.29,1.29,5.85,2.58,1.57,1.29,2.86,2.92,3.87,4.88,1.01,1.97,1.73,4.24,2.17,6.82.43,2.58.65,5.38.65,8.39,0,2.15.31,3.76.92,4.84.61,1.08,1.21,1.81,1.8,2.21.58.4,1,.61,1.24.65.24.03.03.11-.65.23h-12.26v-9.31c0-3.81-.31-6.99-.92-9.54-.62-2.55-1.4-4.59-2.35-6.13-.95-1.53-2.03-2.64-3.23-3.32-1.2-.68-2.38-1.01-3.55-1.01-1.6,0-3.06.46-4.38,1.38-1.32.92-2.23,2.09-2.72,3.5v16.5c0,2.15.31,3.76.92,4.84.61,1.08,1.21,1.81,1.8,2.21.58.4,1,.61,1.24.65.24.03.03.11-.65.23h-15.57c-.68-.12-.89-.2-.65-.23.24-.03.66-.24,1.24-.65.58-.4,1.18-1.14,1.8-2.21.61-1.07.92-2.69.92-4.84v-54.92ZM455.67,1050.83c.55-1.72,1.4-2.93,2.53-3.64,1.14-.71,2.4-1.29,3.78-1.75,1.38-.46,2.79-.95,4.24-1.47,1.44-.52,2.76-1.44,3.96-2.76,1.2-1.32,2.18-3.19,2.95-5.62.77-2.43,1.15-5.76,1.15-10,0-5.16-1.14-8.95-3.41-11.38-2.27-2.43-6.02-3.64-11.24-3.64h-3.96v40.27Z"/>
      <path class="cls-1" d="M519.35,1078.29c-.68-.12-.89-.2-.65-.23.24-.03.66-.24,1.24-.65.58-.4,1.18-1.14,1.8-2.21.61-1.07.92-2.69.92-4.84v-54.92c0-2.15-.31-3.76-.92-4.84-.62-1.07-1.21-1.81-1.8-2.21-.58-.4-1-.61-1.24-.65-.24-.03-.03-.11.65-.23h38.89c-.37,2.83-.68,5.18-.92,7.05-.25,1.87-.46,3.4-.65,4.56-.18,1.17-.37,2-.55,2.49-.18.49-.37.74-.55.74-.37,0-.83-.61-1.38-1.84-.55-1.23-1.35-2.58-2.4-4.05-1.05-1.47-2.44-2.82-4.19-4.05-1.75-1.23-3.98-1.84-6.68-1.84h-8.39c-.31.55-.54,1.23-.69,2.03-.15.8-.23,1.75-.23,2.86v25.07c0,1.78.11,3.03.32,3.73.21.71.6,1.06,1.15,1.06.43,0,1-.15,1.7-.46.71-.31,1.57-.68,2.58-1.11,1.01-.43,2.21-.88,3.59-1.34,1.38-.46,2.96-.84,4.75-1.15,2.03-.37,3.55-.91,4.56-1.61,1.01-.71,1.72-1.34,2.12-1.89.4-.55.63-.91.69-1.06.06-.15.12.17.18.97v12.16c-.06.43-.15.65-.28.65-.18,0-.45-.26-.78-.78-.34-.52-.82-1.11-1.43-1.75-.62-.65-1.35-1.23-2.21-1.75-.86-.52-1.94-.78-3.23-.78s-2.83.14-4.42.41c-1.6.28-3.09.74-4.47,1.38-1.38.65-2.53,1.54-3.46,2.67-.92,1.14-1.38,2.53-1.38,4.19v16.31c0,2.15.31,3.76.92,4.84.61,1.08,1.21,1.81,1.8,2.21.58.4,1,.61,1.24.65.24.03.03.11-.65.23h-15.57Z"/>
      <path class="cls-1" d="M626.8,1072.39c.68-.49.77-.4.28.28-.8,1.11-1.8,2.11-3,3-1.2.89-2.55,1.66-4.05,2.3-1.51.64-3.1,1.14-4.79,1.47-1.69.34-3.43.51-5.21.51s-3.67-.22-5.48-.65c-1.81-.43-3.5-1.14-5.07-2.12-1.57-.98-2.95-2.23-4.15-3.73-1.2-1.51-2.11-3.33-2.72-5.48-.43-1.41-.77-3.06-1.01-4.93-.25-1.87-.57-3.72-.97-5.53-.4-1.81-.94-3.46-1.61-4.93-.68-1.47-1.63-2.49-2.86-3.04-.92-.37-1.84-.55-2.76-.55-1.6,0-3.06.46-4.38,1.38-1.32.92-2.23,2.09-2.72,3.5v16.5c0,2.15.31,3.76.92,4.84.61,1.08,1.21,1.81,1.8,2.21.58.4,1,.61,1.24.65.24.03.03.11-.65.23h-15.57c-.68-.12-.89-.2-.65-.23.24-.03.66-.24,1.24-.65.58-.4,1.18-1.14,1.8-2.21.61-1.07.92-2.69.92-4.84v-54.92c0-2.15-.31-3.76-.92-4.84-.62-1.07-1.21-1.81-1.8-2.21-.58-.4-1-.61-1.24-.65-.24-.03-.03-.11.65-.23h19.63c3.13,0,5.97.37,8.52,1.11,2.55.74,4.75,1.89,6.59,3.46,1.84,1.57,3.26,3.59,4.24,6.08.98,2.49,1.47,5.48,1.47,8.99,0,2.46-.28,4.82-.83,7.1-.55,2.27-1.41,4.33-2.58,6.17-1.17,1.84-2.67,3.4-4.52,4.65-1.84,1.26-4.09,2.14-6.73,2.63,2.21.43,3.87,1.18,4.98,2.26,1.11,1.08,2,2.44,2.67,4.1.68,1.66,1.29,3.58,1.84,5.76.55,2.18,1.38,4.56,2.49,7.14,1.41,3.13,3.36,5.39,5.85,6.77,2.49,1.38,5.15,2.07,7.97,2.07,1.97,0,3.92-.31,5.85-.92,1.94-.61,3.7-1.44,5.3-2.49ZM576.3,1010.55v40.27c.55-1.72,1.4-2.93,2.53-3.64,1.14-.71,2.4-1.29,3.78-1.75,1.38-.46,2.79-.95,4.24-1.47,1.44-.52,2.76-1.44,3.96-2.76,1.2-1.32,2.18-3.19,2.95-5.62.77-2.43,1.15-5.76,1.15-10,0-5.16-1.14-8.95-3.41-11.38-2.27-2.43-6.02-3.64-11.24-3.64h-3.96ZM613.53,1058.38v-42.94c0-2.15-.31-3.76-.92-4.84-.61-1.07-1.21-1.81-1.8-2.21-.58-.4-1-.61-1.24-.65-.25-.03-.03-.11.65-.23h15.57c.68.12.89.2.65.23-.25.03-.66.25-1.24.65-.58.4-1.18,1.14-1.8,2.21-.61,1.08-.92,2.69-.92,4.84v42.94c0,2.15.31,3.76.92,4.84.61,1.08,1.21,1.81,1.8,2.21.58.4,1,.62,1.24.65.24.03.03.11-.65.23h-15.57c-.68-.12-.89-.2-.65-.23.24-.03.66-.24,1.24-.65.58-.4,1.18-1.14,1.8-2.21.61-1.07.92-2.69.92-4.84Z"/>
      <path class="cls-1" d="M647.07,1042.53c0,1.05.12,1.78.37,2.21.24.43.61.65,1.11.65s1.11-.15,1.84-.46c.74-.31,1.58-.68,2.53-1.11.95-.43,2.01-.89,3.18-1.38,1.17-.49,2.43-.92,3.78-1.29,1.9-.49,3.38-1.15,4.42-1.98,1.04-.83,1.83-1.57,2.35-2.21.52-.65.84-1.07.97-1.29.12-.21.18.05.18.78v13.64c-.06.43-.15.65-.28.65-.18,0-.45-.26-.78-.78-.34-.52-.82-1.11-1.43-1.75-.61-.65-1.35-1.23-2.21-1.75-.86-.52-1.94-.78-3.23-.78s-2.78.15-4.29.46c-1.51.31-2.89.78-4.15,1.43-1.26.65-2.3,1.49-3.13,2.53-.83,1.05-1.24,2.3-1.24,3.78v16.5c0,1.11.08,2.06.23,2.86.15.8.38,1.47.69,2.03h7.74c3.07,0,5.64-.51,7.69-1.52,2.06-1.01,3.72-2.18,4.98-3.5,1.26-1.32,2.21-2.63,2.86-3.92s1.09-2.2,1.34-2.72c.24-.52.38-.48.41.14.03.62.05,2.15.05,4.61v9.95h-38.24c-.68-.12-.89-.2-.65-.23.24-.03.66-.24,1.24-.65.58-.4,1.18-1.14,1.8-2.21.61-1.07.92-2.69.92-4.84v-54.92c0-2.15-.31-3.76-.92-4.84-.62-1.07-1.21-1.81-1.8-2.21-.58-.4-1-.61-1.24-.65-.24-.03-.03-.11.65-.23h38.89c-.37,2.58-.68,4.76-.92,6.54-.25,1.78-.46,3.21-.65,4.29-.18,1.08-.34,1.84-.46,2.3-.12.46-.25.69-.37.69-.25,0-.6-.57-1.06-1.7-.46-1.14-1.21-2.36-2.26-3.69-1.05-1.32-2.49-2.55-4.33-3.69-1.84-1.14-4.27-1.7-7.28-1.7h-8.39c-.31.55-.54,1.23-.69,2.03-.15.8-.23,1.75-.23,2.86v27.09Z"/>
      <path class="cls-1" d="M687.62,1030.55c-.37-1.29-.6-1.94-.69-1.94s-.14.68-.14,2.03v36.68c0,2.95.31,5.15.92,6.59.61,1.44,1.21,2.47,1.8,3.09.58.61,1,.95,1.24,1.01.24.06.03.15-.65.28h-9.68c-.68-.12-.89-.21-.65-.28.24-.06.66-.4,1.24-1.01.58-.61,1.18-1.64,1.8-3.09.61-1.44.92-3.64.92-6.59v-48.84c0-3.01-.31-5.25-.92-6.73-.62-1.47-1.21-2.5-1.8-3.09-.58-.58-1-.89-1.24-.92-.24-.03-.03-.11.65-.23h14.84c.68.12.89.2.65.23-.25.03-.66.34-1.24.92s-1.18,1.61-1.8,3.09c-.61,1.47-.92,3.72-.92,6.73,0,2.09.54,4.15,1.61,6.17,1.07,2.03,2.44,4.05,4.1,6.08,1.66,2.03,3.49,4.09,5.48,6.17,2,2.09,3.92,4.25,5.76,6.5,1.84,2.24,3.49,4.56,4.93,6.96,1.44,2.4,2.44,4.92,3,7.56v-38.61c0-3.13-.31-5.48-.92-7.05-.61-1.57-1.21-2.69-1.8-3.36-.58-.68-1-1.04-1.24-1.11-.25-.06-.03-.15.65-.28h9.68c.68.12.89.22.65.28-.25.06-.66.43-1.24,1.11-.58.68-1.18,1.8-1.8,3.36-.61,1.57-.92,3.92-.92,7.05v58.98h-3.04c-.62-4.48-1.66-8.37-3.13-11.66-1.47-3.29-3.16-6.22-5.07-8.8-1.91-2.58-3.92-4.9-6.04-6.96-2.12-2.06-4.15-4.12-6.08-6.17-1.94-2.06-3.7-4.21-5.3-6.45-1.6-2.24-2.8-4.81-3.59-7.69Z"/>
      <path class="cls-1" d="M730.74,1007.51h20.37c4.42,0,7.99.97,10.69,2.9,2.7,1.94,4.79,4.56,6.27,7.88s2.46,7.2,2.95,11.66c.49,4.46.74,9.2.74,14.24s-.25,9.65-.74,13.82c-.49,4.18-1.47,7.77-2.95,10.78-1.47,3.01-3.55,5.35-6.22,7-2.67,1.66-6.22,2.49-10.64,2.49h-20.46c-.68-.12-.89-.2-.65-.23.24-.03.66-.24,1.24-.65.58-.4,1.18-1.14,1.8-2.21.61-1.07.92-2.69.92-4.84v-54.92c0-2.15-.31-3.76-.92-4.84-.62-1.07-1.21-1.81-1.8-2.21-.58-.4-1-.61-1.24-.65-.24-.03-.03-.11.65-.23ZM743,1075.25h4.88c2.7,0,5.01-.83,6.91-2.49,1.9-1.66,3.46-3.88,4.65-6.68,1.2-2.79,2.06-6.08,2.58-9.86.52-3.78.78-7.79.78-12.03s-.26-8.37-.78-12.39c-.52-4.02-1.37-7.62-2.53-10.78-1.17-3.16-2.7-5.7-4.61-7.6-1.91-1.9-4.24-2.86-7-2.86h-4.88v64.69Z"/>
      <path class="cls-1" d="M810.64,1015.25c-.55-2.09-1.28-3.64-2.17-4.65-.89-1.01-1.69-1.73-2.4-2.17-.71-.43-1.18-.68-1.43-.74-.24-.06-.03-.15.65-.28h15.57c.61.12.84.2.69.23-.15.03-.45.2-.88.51-.43.31-.83.83-1.2,1.57-.37.74-.46,1.87-.28,3.41l13.09,45.52,9.58-37.51c.74-3.62.91-6.34.51-8.16-.4-1.81-.91-3.1-1.52-3.87-.62-.77-1.12-1.2-1.52-1.29-.4-.09-.26-.2.41-.32h9.68c.49.06.69.11.6.14-.09.03-.29.15-.6.37-.31.22-.69.55-1.15,1.01s-.84,1.17-1.15,2.12c-.31.95-.49,2.2-.55,3.73-.06,1.54.15,3.47.65,5.81l9.58,37.69,10.04-43.68c.43-1.97.48-3.42.14-4.38-.34-.95-.74-1.63-1.2-2.03-.46-.4-.8-.61-1.01-.65-.22-.03.01-.11.69-.23h9.68c.68.12.88.2.6.23-.28.03-.77.26-1.47.69-.71.43-1.51,1.17-2.4,2.21-.89,1.05-1.58,2.61-2.07,4.7l-15.02,63.03h-3.23l-10.14-39.44-10.14,39.44h-3.23l-17.42-63.03Z"/>
      <path class="cls-1" d="M882.71,1070.36v-54.92c0-2.15-.31-3.76-.92-4.84-.62-1.07-1.21-1.81-1.8-2.21-.58-.4-1-.61-1.24-.65-.24-.03-.03-.11.65-.23h15.57c.68.12.89.2.65.23-.25.03-.66.25-1.24.65-.58.4-1.18,1.14-1.8,2.21-.62,1.08-.92,2.69-.92,4.84v54.92c0,2.15.31,3.76.92,4.84.61,1.08,1.21,1.81,1.8,2.21.58.4,1,.61,1.24.65.24.03.03.11-.65.23h-15.57c-.68-.12-.89-.2-.65-.23.24-.03.66-.24,1.24-.65.58-.4,1.18-1.14,1.8-2.21.61-1.07.92-2.69.92-4.84Z"/>
      <path class="cls-1" d="M953.39,1045.85c1.11-1.47,2.55-2.64,4.33-3.5,1.78-.86,3.56-1.29,5.35-1.29,1.11,0,2.17.17,3.18.51,1.01.34,1.92.88,2.72,1.61v-27.74c0-2.15-.31-3.76-.92-4.84-.62-1.07-1.21-1.81-1.8-2.21-.58-.4-1-.61-1.24-.65-.25-.03-.03-.11.65-.23h15.57c.68.12.89.2.65.23-.25.03-.66.25-1.24.65-.58.4-1.18,1.14-1.8,2.21-.61,1.08-.92,2.69-.92,4.84v54.92c0,2.15.31,3.76.92,4.84.61,1.08,1.21,1.81,1.8,2.21.58.4,1,.61,1.24.65.24.03.03.11-.65.23h-15.57c-.68-.12-.89-.2-.65-.23.24-.03.66-.24,1.24-.65.58-.4,1.18-1.14,1.8-2.21.61-1.07.92-2.69.92-4.84v-21.84c-.61-.98-1.51-1.7-2.67-2.17-1.17-.46-2.46-.69-3.87-.69-1.23,0-2.47.18-3.73.55-1.26.37-2.41.89-3.46,1.57-1.05.68-1.9,1.54-2.58,2.58-.68,1.05-1.05,2.21-1.11,3.5v16.5c0,2.15.31,3.76.92,4.84.61,1.08,1.21,1.81,1.8,2.21.58.4,1,.61,1.24.65.24.03.03.11-.65.23h-15.57c-.68-.12-.89-.2-.65-.23.24-.03.66-.24,1.24-.65.58-.4,1.18-1.14,1.8-2.21.61-1.07.92-2.69.92-4.84v-52.9c0-.55-.09-1.23-.28-2.03-.18-.8-.52-1.55-1.01-2.26-.49-.71-1.2-1.32-2.12-1.84-.92-.52-2.12-.78-3.59-.78h-6.36c-.61,0-1.08.26-1.38.78-.31.52-.54,1.14-.69,1.84-.15.71-.25,1.4-.28,2.07-.03.68-.05,1.2-.05,1.57v53.54c0,2.15.31,3.76.92,4.84.61,1.08,1.21,1.81,1.8,2.21.58.4,1,.61,1.24.65.24.03.03.11-.65.23h-15.57c-.68-.12-.89-.2-.65-.23.24-.03.66-.24,1.24-.65.58-.4,1.18-1.14,1.8-2.21.61-1.07.92-2.69.92-4.84v-53.54c0-.37-.02-.89-.05-1.57-.03-.68-.11-1.37-.23-2.07-.12-.71-.35-1.32-.69-1.84-.34-.52-.82-.78-1.43-.78h-4.79c-1.35,0-2.53.63-3.55,1.89-1.01,1.26-1.89,2.63-2.63,4.1-.74,1.47-1.38,2.84-1.94,4.1-.55,1.26-1.01,1.89-1.38,1.89-.12,0-.28-.15-.46-.46v-14.56h54.09c.68.12.89.2.65.23-.25.03-.66.25-1.24.65-.58.4-1.18,1.14-1.8,2.21-.61,1.08-.92,2.69-.92,4.84v30.04c0,1.6.06,2.38.18,2.35.12-.03.68-.69,1.66-1.98Z"/>
      <path class="cls-1" d="M1020.94,1070.45l12.99-49.95c.55-2.33.63-4.12.23-5.35-.4-1.23-.92-2.13-1.57-2.72-.65-.58-1.2-.95-1.66-1.11-.46-.15-.48-.26-.05-.32l13.09-3.5c.92,0,1.46.02,1.61.05.15.03.17.26.05.69-.12.43-.22,1.17-.28,2.21-.06,1.05.15,2.61.65,4.7l14.28,55.29c.55,2.09,1.26,3.66,2.12,4.7.86,1.05,1.64,1.78,2.35,2.21.71.43,1.2.66,1.47.69.28.03.08.11-.6.23h-15.57c-.62-.12-.85-.2-.69-.23.15-.03.45-.2.88-.51.43-.31.83-.83,1.2-1.57.37-.74.46-1.87.28-3.41l-2.49-8.75c-.25-1.04-.85-2.01-1.8-2.9-.95-.89-2.07-1.69-3.36-2.4-1.29-.71-2.7-1.26-4.24-1.66-1.54-.4-3.04-.6-4.52-.6-2.15,0-4.07.48-5.76,1.43-1.69.95-2.84,2.57-3.46,4.84l-2.21,8.48c-.43,1.97-.48,3.43-.14,4.38.34.95.74,1.63,1.2,2.03.46.4.8.61,1.01.65.21.03-.02.11-.69.23h-9.68c-.68-.12-.88-.2-.6-.23.28-.03.77-.26,1.47-.69.71-.43,1.49-1.17,2.35-2.21.86-1.04,1.57-2.61,2.12-4.7ZM1028.4,1053.68c-.31,1.11-.35,1.72-.14,1.84.21.12.84-.15,1.89-.83,1.11-.68,2.36-1.2,3.78-1.57,1.41-.37,2.86-.55,4.33-.55,1.6,0,3.16.23,4.7.69,1.53.46,2.83,1.15,3.87,2.07l-9.86-34.65-8.57,32.99Z"/>
      <path class="cls-1" d="M1099.91,1007.51h25.53c3.07,0,5.54.55,7.42,1.66,1.87,1.11,3.33,2.58,4.38,4.42,1.04,1.84,1.75,3.95,2.12,6.31.37,2.37.55,4.78.55,7.23,0,4.98-.98,8.8-2.95,11.47-1.97,2.67-5.25,4.44-9.86,5.3,4.18.18,7.36,1.78,9.54,4.79,2.18,3.01,3.27,6.94,3.27,11.8,0,3.13-.45,5.82-1.34,8.06-.89,2.24-2.03,4.09-3.41,5.53-1.38,1.44-2.93,2.5-4.65,3.18-1.72.68-3.41,1.01-5.07,1.01h-25.53c-.68-.12-.89-.2-.65-.23.24-.03.66-.24,1.24-.65.58-.4,1.18-1.14,1.8-2.21.61-1.07.92-2.69.92-4.84v-54.92c0-2.15-.31-3.76-.92-4.84-.62-1.07-1.21-1.81-1.8-2.21-.58-.4-1-.61-1.24-.65-.24-.03-.03-.11.65-.23ZM1112.17,1045.66c.37-.74.98-1.32,1.84-1.75.86-.43,1.81-.75,2.86-.97,1.04-.21,2.09-.35,3.13-.41,1.04-.06,1.94-.09,2.67-.09,1.04,0,2.03-.26,2.95-.78.92-.52,1.73-1.43,2.44-2.72.71-1.29,1.26-3.03,1.66-5.21.4-2.18.6-4.9.6-8.16,0-1.29-.08-2.8-.23-4.52-.15-1.72-.52-3.36-1.11-4.93-.58-1.57-1.43-2.89-2.53-3.96-1.11-1.07-2.58-1.61-4.42-1.61h-9.86v35.11ZM1112.17,1075.25h9.86c1.72,0,3.12-.41,4.19-1.24,1.07-.83,1.92-1.94,2.53-3.32.61-1.38,1.03-2.96,1.24-4.75.21-1.78.32-3.59.32-5.44s-.12-3.67-.37-5.48c-.25-1.81-.68-3.42-1.29-4.84-.61-1.41-1.44-2.55-2.49-3.41-1.05-.86-2.37-1.29-3.96-1.29h-2.3c-.92,0-1.86.09-2.81.28-.95.18-1.87.49-2.76.92-.89.43-1.61,1.11-2.17,2.03v26.54Z"/>
      <path class="cls-1" d="M1167.37,1079.12c-3.19,0-5.99-.46-8.39-1.38-2.4-.92-4.39-2.1-5.99-3.55-1.6-1.44-2.8-3.04-3.59-4.79-.8-1.75-1.2-3.49-1.2-5.21v-42.58c0-1.72.4-3.46,1.2-5.21.8-1.75,2-3.35,3.59-4.79,1.6-1.44,3.59-2.63,5.99-3.55,2.4-.92,5.19-1.38,8.39-1.38s5.99.46,8.39,1.38c2.4.92,4.39,2.09,5.99,3.5,1.6,1.41,2.79,3.01,3.59,4.79.8,1.78,1.2,3.5,1.2,5.16v42.76c0,1.66-.4,3.38-1.2,5.16-.8,1.78-2,3.38-3.59,4.79-1.6,1.41-3.59,2.58-5.99,3.5-2.4.92-5.19,1.38-8.39,1.38ZM1167.37,1009.72c-2.52,0-4.46.63-5.81,1.89-1.35,1.26-2.34,2.73-2.95,4.42-.61,1.69-.97,3.36-1.06,5.02-.09,1.66-.14,2.92-.14,3.78v36.12c0,.8.05,2.04.14,3.73.09,1.69.45,3.38,1.06,5.07.61,1.69,1.6,3.16,2.95,4.42,1.35,1.26,3.29,1.89,5.81,1.89s4.45-.61,5.81-1.84c1.35-1.23,2.35-2.67,3-4.33s1.01-3.33,1.11-5.02c.09-1.69.14-3,.14-3.92v-36.12c0-.92-.05-2.23-.14-3.92-.09-1.69-.46-3.36-1.11-5.02s-1.64-3.1-3-4.33c-1.35-1.23-3.29-1.84-5.81-1.84Z"/>
      <path class="cls-1" d="M1193.54,1070.45l12.99-49.95c.55-2.33.63-4.12.23-5.35-.4-1.23-.92-2.13-1.57-2.72-.65-.58-1.2-.95-1.66-1.11-.46-.15-.48-.26-.05-.32l13.09-3.5c.92,0,1.46.02,1.61.05.15.03.17.26.05.69-.12.43-.22,1.17-.28,2.21-.06,1.05.15,2.61.65,4.7l14.28,55.29c.55,2.09,1.26,3.66,2.12,4.7.86,1.05,1.64,1.78,2.35,2.21.71.43,1.2.66,1.47.69.28.03.08.11-.6.23h-15.57c-.62-.12-.85-.2-.69-.23.15-.03.45-.2.88-.51.43-.31.83-.83,1.2-1.57.37-.74.46-1.87.28-3.41l-2.49-8.75c-.25-1.04-.85-2.01-1.8-2.9-.95-.89-2.07-1.69-3.36-2.4-1.29-.71-2.7-1.26-4.24-1.66-1.54-.4-3.04-.6-4.52-.6-2.15,0-4.07.48-5.76,1.43-1.69.95-2.84,2.57-3.46,4.84l-2.21,8.48c-.43,1.97-.48,3.43-.14,4.38.34.95.74,1.63,1.2,2.03.46.4.8.61,1.01.65.21.03-.02.11-.69.23h-9.68c-.68-.12-.88-.2-.6-.23.28-.03.77-.26,1.47-.69.71-.43,1.49-1.17,2.35-2.21.86-1.04,1.57-2.61,2.12-4.7ZM1201,1053.68c-.31,1.11-.35,1.72-.14,1.84.21.12.84-.15,1.89-.83,1.11-.68,2.36-1.2,3.78-1.57,1.41-.37,2.86-.55,4.33-.55,1.6,0,3.16.23,4.7.69,1.53.46,2.83,1.15,3.87,2.07l-9.86-34.65-8.57,32.99Z"/>
      <path class="cls-1" d="M1275.28,1007.51v14.56c-.06.37-.18.55-.37.55-.31,0-.72-.63-1.24-1.89-.52-1.26-1.17-2.64-1.94-4.15-.77-1.5-1.7-2.89-2.81-4.15-1.11-1.26-2.43-1.89-3.96-1.89h-4.42c-.61,0-1.08.26-1.38.78-.31.52-.54,1.14-.69,1.84-.15.71-.25,1.4-.28,2.07-.03.68-.05,1.2-.05,1.57v53.54c0,2.15.31,3.76.92,4.84.61,1.08,1.21,1.81,1.8,2.21.58.4,1,.61,1.24.65.24.03.03.11-.65.23h-15.57c-.68-.12-.89-.2-.65-.23.24-.03.66-.24,1.24-.65.58-.4,1.18-1.14,1.8-2.21.61-1.07.92-2.69.92-4.84v-53.54c0-.37-.02-.89-.05-1.57-.03-.68-.11-1.37-.23-2.07-.12-.71-.35-1.32-.69-1.84-.34-.52-.82-.78-1.43-.78h-4.79c-1.35,0-2.53.63-3.55,1.89-1.01,1.26-1.89,2.63-2.63,4.1-.74,1.47-1.38,2.84-1.94,4.1-.55,1.26-1.01,1.89-1.38,1.89-.12,0-.28-.15-.46-.46v-14.56h43.22Z"/>
    </g>
    <g id="Artwork_1" data-name="Artwork 1">
      <path class="cls-1" d="M1007.06,325.91c-1.35-13.77-2.59-26.74-3.77-38.97-10.59-110.4-15.43-160.79-40.45-199.56-4.34-6.73-9.28-13.1-15.09-19.46-24.69-27.08-58.34-46.34-99.99-57.26-29.06-7.62-62.14-11.19-98.31-10.6-36.18-.59-69.25,2.98-98.31,10.6-41.65,10.92-75.3,30.18-99.99,57.26-5.81,6.36-10.75,12.73-15.09,19.46-25.02,38.77-29.86,89.16-40.45,199.57-1.18,12.22-2.42,25.19-3.77,38.96-8.66,88.25-18.74,179.17-29.97,270.24l-.49,3.93h573.84l-28.16-274.17ZM996.33,287.61c1.17,12.23,2.42,25.2,3.77,39l26.73,260.23-29.85-31.01-23.83-232.02c-1.17-11.88-2.24-23.07-3.26-33.62-9.1-94.83-13.28-138.41-34.62-171.89l23.96-23.46c22.14,36.96,26.95,87.06,37.1,192.77ZM989.76,554h-21.08v-205.25l21.08,205.25ZM778.7,363.87l.52-2.76v3.05l41.17,23.29v166.55h-41.17v-189.84l-.52-.29ZM749.46,481.88l-22.84-121.86-4.13-22.02,26.97,11.37,26.96-11.37h.01l-4.17,22.22-22.8,121.66ZM772.22,398.45v155.55h-45.97v-157.95l23.21,123.83,22.76-121.43ZM749.46,341.78l-28.89-12.19-11.18-28.13,11.59-28.27,28.48-12.09,28.48,12.09,11.59,28.27-11.01,27.71-.17.42-.38.16-28.51,12.03ZM577.25,301.44l112.47-21.81,22.87-4.43-10.75,26.22,10.4,26.16h0s-22.61-4.37-22.61-4.37l-112.38-21.77ZM624.96,317.81v236.19h-39.57v-243.86l39.57,7.67ZM578.39,308.79v245.21h-40.97v-260.3c.09-.95.18-1.9.27-2.84,4.52-47.11,7.81-81.42,12.57-107.96,4.75-26.55,10.97-45.34,21.34-61.4,2.08-3.22,4.32-6.34,6.79-9.42v182.01l-37.93,7.35,37.93,7.35ZM585.39,292.73V104.03c11.08-11.81,24.32-21.78,39.57-29.84v210.87l-39.57,7.67ZM719.23,246.63l-3.94,20.91h-.01s-21.85,4.25-21.85,4.25h0s-31.31-57.75-31.31-57.75l57.11,32.59ZM678.53,215.34V55.36c12.77-2.7,26.38-4.53,40.72-5.49v188.71l-40.72-23.24ZM686.22,273.18l-7.69,1.49v-15.68l7.69,14.19ZM671.53,211.34l-27.27-15.56,27.27,50.3v29.95l-39.57,7.67V70.69c10.8-5.12,22.53-9.33,35.15-12.64,1.46-.38,2.94-.75,4.42-1.11v154.4ZM686.13,329.66l-7.6,14.02v-15.5l7.6,1.48ZM631.96,319.16l39.57,7.67v29.77l-27.25,50.26,27.25-15.5v162.64h-39.57v-234.84ZM662.11,388.67l31.22-57.61,16.03,3.1,5.49,1.06,3.97,21.18c-11.71,6.66-23.42,13.32-35.13,19.99l-21.58,12.28ZM678.53,387.37c2.88-1.63,5.76-3.27,8.63-4.9l32.09-18.26v189.79h-40.72v-166.63ZM749.46,124.03l26.52,140.73-26.52-11.27-26.52,11.27,26.52-140.73ZM726.25,209.36V49.48c7.8-.39,15.81-.5,24.01-.37h.05s.06,0,.06,0c7.45-.12,14.73-.04,21.85.26v157.61l-22.76-120.74-23.21,123.12ZM836.8,214.04l-31.31,57.74h0s-21.85-4.23-21.85-4.23h-.01s-3.94-20.92-3.94-20.92l57.11-32.59ZM827.39,211.34V56.55c2.07.46,4.11.97,6.13,1.5,11.96,3.13,23.11,7.08,33.44,11.84v213.81l-39.57-7.67v-29.95l27.27-50.3-27.27,15.56ZM820.39,258.99v15.68l-7.69-1.49,7.69-14.19ZM820.39,215.34l-41.17,23.5V49.74c14.49.87,28.25,2.63,41.17,5.26v160.34ZM784.14,358.89l-4.07-2.3,4-21.37.66-.13,20.86-4.03,31.25,57.65-52.7-29.82ZM812.8,329.66l7.59-1.48v15.49l-7.59-14.01ZM827.39,391.41l27.22,15.4-27.22-50.22v-29.76l39.57-7.67v234.84h-39.57v-162.59ZM873.96,317.81l39.57-7.67v243.86h-39.57v-236.19ZM809.3,323.21l-22.62,4.38,10.4-26.17-10.75-26.22,22.87,4.43,112.47,21.81-112.37,21.77ZM873.96,285.06V73.3c15.19,7.81,28.42,17.48,39.57,28.94v190.49l-39.57-7.67ZM920.53,308.79l37.93-7.35-37.93-7.35V109.99c3.15,3.76,5.95,7.56,8.5,11.51,19.74,30.6,24.43,71.06,32.65,156.22v276.28h-41.15v-245.21ZM556.33,72.63c23.77-26.05,56.27-44.63,96.6-55.2,28.46-7.47,60.91-10.95,96.47-10.37h.12c35.54-.59,68.01,2.9,96.47,10.37,40.33,10.57,72.83,29.15,96.6,55.2,4.86,5.32,9.07,10.63,12.81,16.17l-24.12,23.62c-2.83-3.93-5.95-7.76-9.44-11.58-21.38-23.44-50.5-40.11-86.55-49.57-25.12-6.58-53.71-9.66-84.98-9.16-31.27-.51-59.85,2.58-84.98,9.16-36.04,9.46-65.16,26.13-86.54,49.57-3.55,3.89-6.72,7.77-9.58,11.77l-25.13-24.61c3.59-5.25,7.62-10.3,12.25-15.37ZM498.81,326.59c1.35-13.77,2.6-26.74,3.77-38.98,10.23-106.53,15.04-156.58,37.61-193.62l25.03,24.51c-21.23,33.45-25.41,77.05-34.5,171.69-1.01,10.55-2.08,21.74-3.25,33.62-7.44,75.84-16.1,153.94-25.74,232.17l-31.68,31.09c10.74-87.81,20.42-175.38,28.76-260.48ZM530.42,364.53v189.47h-21.39c7.83-63.64,14.99-127.18,21.39-189.47ZM473.92,593.08l32.69-32.08h485.65l30.86,32.08H473.92Z"/>
    </g>
  </g>
</svg>