<?xml version="1.0" encoding="UTF-8"?>
<svg id="Layer_2" data-name="Layer 2" xmlns="http://www.w3.org/2000/svg" viewBox="0 0 1917.82 416.99">
  <defs>
    <style>
      .cls-1 {
        fill: #339;
      }
    </style>
  </defs>
  <g id="Layer_1" data-name="Layer 1">
    <g>
      <path class="cls-1" d="M575.78,286.64c-12.16,0-22.79-1.76-31.91-5.26-9.12-3.51-16.72-8-22.79-13.5-6.09-5.49-10.64-11.57-13.68-18.24-3.04-6.66-4.56-13.27-4.56-19.81V67.8c0-6.54,1.52-13.15,4.56-19.81,3.04-6.67,7.59-12.74,13.68-18.24,6.08-5.49,13.68-9.99,22.79-13.5,9.12-3.51,19.76-5.26,31.91-5.26s22.8,1.75,31.91,5.26c9.12,3.51,16.72,7.95,22.8,13.33,6.08,5.38,10.64,11.46,13.68,18.24,3.04,6.78,4.56,13.33,4.56,19.64v162.73c0,6.31-1.52,12.86-4.56,19.64-3.04,6.78-7.6,12.86-13.68,18.23-6.08,5.38-13.68,9.82-22.8,13.33-9.12,3.51-19.76,5.26-31.91,5.26ZM575.78,22.55c-9.59,0-16.95,2.4-22.09,7.19-5.14,4.8-8.89,10.41-11.22,16.84-2.34,6.43-3.68,12.8-4.03,19.11-.35,6.31-.52,11.11-.52,14.38v137.48c0,3.04.17,7.78.52,14.21.35,6.43,1.69,12.86,4.03,19.29,2.34,6.43,6.08,12.04,11.22,16.83,5.14,4.8,12.51,7.19,22.09,7.19s16.95-2.33,22.09-7.02c5.14-4.67,8.95-10.17,11.4-16.48,2.45-6.31,3.86-12.68,4.21-19.12.35-6.43.53-11.4.53-14.9V80.07c0-3.51-.18-8.47-.53-14.9-.35-6.43-1.75-12.8-4.21-19.12-2.45-6.31-6.26-11.8-11.4-16.48-5.14-4.67-12.51-7.02-22.09-7.02Z"/>
      <path class="cls-1" d="M1040.52,281.74c-6.31,0-12.33-1.17-18.06-3.51-5.74-2.33-10.76-5.55-15.08-9.65-4.33-4.09-7.71-8.94-10.17-14.56-2.45-5.61-3.68-11.69-3.68-18.23V59.04c0-6.54,1.28-12.62,3.86-18.24,2.57-5.61,6.02-10.52,10.35-14.73,4.32-4.21,9.35-7.54,15.08-9.99,5.73-2.45,11.75-3.68,18.06-3.68h83.47c-3.28,10.76-6.09,19.7-8.42,26.83-2.34,7.13-4.21,12.92-5.61,17.36-1.4,4.45-2.57,7.6-3.51,9.47-.93,1.87-1.64,2.8-2.1,2.8-.94,0-1.64-2.33-2.11-7.01-.47-4.68-1.58-9.82-3.33-15.43-1.75-5.61-4.56-10.75-8.42-15.43-3.86-4.67-9.65-7.01-17.36-7.01h-19.99c-5.15,0-9.35,1.81-12.62,5.43-3.28,3.63-5.91,7.95-7.89,12.98-1.99,5.03-3.33,10.23-4.03,15.6-.7,5.38-1.05,9.82-1.05,13.33v152.21c0,3.5.29,7.89.88,13.15.58,5.26,1.75,10.41,3.51,15.43,1.75,5.03,4.32,9.29,7.71,12.8,3.39,3.51,7.89,5.26,13.5,5.26h24.9c4.21,0,8.65-1.93,13.33-5.79,4.67-3.86,9.12-8.07,13.33-12.62,4.21-4.56,8.01-8.77,11.4-12.63,3.39-3.86,5.9-5.78,7.54-5.78.93,0,1.52.82,1.76,2.45.23,1.64,0,4.33-.7,8.06-.7,3.74-1.81,8.71-3.33,14.9-1.52,6.2-3.56,13.86-6.14,22.97h-75.05Z"/>
      <path class="cls-1" d="M1212.68,288.05c-12.16,0-22.79-1.76-31.91-5.26-9.12-3.51-16.72-8-22.79-13.5-6.09-5.49-10.64-11.57-13.68-18.24-3.04-6.66-4.56-13.27-4.56-19.81V69.2c0-6.54,1.52-13.15,4.56-19.81,3.04-6.67,7.59-12.74,13.68-18.24,6.08-5.49,13.68-9.99,22.79-13.5,9.12-3.51,19.76-5.26,31.91-5.26s22.8,1.75,31.91,5.26c9.12,3.51,16.72,7.95,22.8,13.33,6.08,5.38,10.64,11.46,13.68,18.24,3.04,6.78,4.56,13.33,4.56,19.64v162.73c0,6.31-1.52,12.86-4.56,19.64-3.04,6.78-7.6,12.86-13.68,18.23-6.08,5.38-13.68,9.82-22.8,13.33-9.12,3.51-19.76,5.26-31.91,5.26ZM1212.68,23.96c-9.59,0-16.95,2.4-22.09,7.19-5.14,4.8-8.89,10.41-11.22,16.84-2.34,6.43-3.68,12.8-4.03,19.11-.35,6.31-.52,11.11-.52,14.38v137.48c0,3.04.17,7.78.52,14.21.35,6.43,1.69,12.86,4.03,19.29,2.34,6.43,6.08,12.04,11.22,16.83,5.14,4.8,12.51,7.19,22.09,7.19s16.95-2.33,22.09-7.02c5.14-4.67,8.95-10.17,11.4-16.48,2.45-6.31,3.86-12.68,4.21-19.12.35-6.43.53-11.4.53-14.9V81.48c0-3.51-.18-8.47-.53-14.9-.35-6.43-1.75-12.8-4.21-19.12-2.45-6.31-6.26-11.8-11.4-16.48-5.14-4.67-12.51-7.02-22.09-7.02Z"/>
      <path class="cls-1" d="M1293.76,12.39h59.27c2.57.47,3.39.76,2.45.88-.94.12-2.52.93-4.74,2.45-2.23,1.52-4.5,4.33-6.84,8.42-2.34,4.09-3.51,10.23-3.51,18.41v168.34c0,8.19.64,15.91,1.93,23.15,1.28,7.25,3.45,13.56,6.49,18.94,3.04,5.38,7.19,9.59,12.45,12.62,5.26,3.04,11.75,4.56,19.47,4.56,14.49,0,24.72-5.26,30.69-15.78,5.96-10.52,8.94-24.67,8.94-42.44V42.55c0-8.18-1.17-14.32-3.5-18.41-2.34-4.09-4.62-6.89-6.84-8.42-2.22-1.52-3.8-2.33-4.74-2.45-.93-.11-.12-.41,2.45-.88h36.82c2.57.47,3.39.76,2.45.88-.93.12-2.52.93-4.74,2.45-2.22,1.52-4.5,4.33-6.84,8.42-2.34,4.09-3.51,10.23-3.51,18.41v168.7c0,9.12-.82,17.88-2.45,26.3-1.64,8.42-4.68,15.9-9.12,22.44-4.44,6.55-10.64,11.81-18.59,15.78-7.95,3.98-18.24,5.96-30.86,5.96-20.11,0-35.89-5.61-47.34-16.84-11.46-11.22-17.18-29.11-17.18-53.66V42.55c0-8.18-1.18-14.32-3.51-18.41-2.34-4.09-4.62-6.89-6.84-8.42-2.22-1.52-3.8-2.33-4.74-2.45-.93-.11-.12-.41,2.45-.88Z"/>
      <path class="cls-1" d="M1462.74,42.55c0-8.18-1.18-14.32-3.51-18.41-2.34-4.09-4.62-6.89-6.84-8.42-2.22-1.52-3.8-2.33-4.74-2.45-.93-.11-.12-.41,2.45-.88h74.7c11.93,0,22.74,1.4,32.44,4.21,9.7,2.8,18.06,7.19,25.07,13.15,7.02,5.96,12.39,13.68,16.13,23.15,3.74,9.47,5.61,20.87,5.61,34.2,0,9.35-1.05,18.36-3.16,27-2.11,8.65-5.38,16.49-9.82,23.5-4.44,7.02-10.17,12.93-17.18,17.71-7.02,4.8-15.55,8.13-25.6,9.99,8.89,1.64,16.31,4.91,22.27,9.82,5.96,4.91,10.87,11.11,14.73,18.59,3.86,7.49,6.6,16.13,8.24,25.95,1.63,9.82,2.45,20.47,2.45,31.91,0,8.19,1.17,14.33,3.51,18.41,2.33,4.1,4.61,6.9,6.84,8.42,2.22,1.52,3.8,2.34,4.74,2.45.93.12.11.41-2.45.88h-46.65v-35.42c0-14.49-1.17-26.59-3.5-36.3-2.34-9.7-5.32-17.48-8.95-23.32-3.63-5.84-7.71-10.05-12.27-12.63-4.56-2.57-9.06-3.86-13.5-3.86-6.08,0-11.63,1.76-16.66,5.26-5.03,3.51-8.48,7.95-10.35,13.33v62.78c0,8.19,1.17,14.33,3.51,18.41,2.34,4.1,4.61,6.9,6.84,8.42,2.22,1.52,3.8,2.34,4.74,2.45.93.12.11.41-2.45.88h-59.27c-2.57-.47-3.39-.76-2.45-.88.93-.11,2.51-.93,4.74-2.45,2.22-1.52,4.5-4.32,6.84-8.42,2.33-4.08,3.51-10.22,3.51-18.41V42.55ZM1496.76,177.23c2.11-6.54,5.32-11.17,9.65-13.85,4.32-2.69,9.12-4.91,14.38-6.67,5.26-1.75,10.64-3.62,16.13-5.61,5.49-1.98,10.52-5.49,15.08-10.52,4.56-5.03,8.3-12.16,11.22-21.4,2.92-9.23,4.39-21.92,4.39-38.05,0-19.64-4.33-34.07-12.98-43.31-8.65-9.23-22.92-13.85-42.78-13.85h-15.08v153.26Z"/>
      <path class="cls-1" d="M1689.79,12.39h70.49c-2.11,8.65-3.92,15.84-5.43,21.57-1.52,5.73-2.93,10.34-4.21,13.85s-2.4,6.02-3.33,7.54c-.94,1.52-1.87,2.28-2.81,2.28-1.4,0-2.98-1.75-4.74-5.26-1.75-3.51-4.03-7.36-6.84-11.58-2.8-4.21-6.49-8.06-11.05-11.57-4.56-3.51-10.47-5.26-17.71-5.26-7.71,0-14.44,1.52-20.16,4.56-5.73,3.04-10.41,7.14-14.03,12.27-3.63,5.15-6.32,10.93-8.07,17.36-1.75,6.43-2.63,13.04-2.63,19.81,0,12.86,2.57,22.79,7.71,29.81,5.14,7.02,11.51,12.69,19.12,17.01,7.59,4.33,15.78,8.24,24.55,11.75,8.77,3.51,16.95,8.13,24.55,13.86,7.59,5.73,13.91,13.5,18.94,23.32,5.03,9.82,7.54,23.27,7.54,40.33,0,8.65-1.81,17.07-5.43,25.25-3.63,8.19-8.83,15.43-15.61,21.75-6.78,6.31-14.9,11.34-24.38,15.08-9.47,3.74-20.05,5.61-31.74,5.61h-55.06c-.94-17.3-1.58-30.69-1.93-40.16-.35-9.47-.41-16.13-.17-19.99.23-3.86.88-5.32,1.93-4.39,1.05.94,2.57,3.22,4.56,6.84,1.98,3.63,4.44,8.07,7.36,13.33,2.92,5.26,6.49,10.34,10.7,15.25,4.21,4.91,9,9.06,14.38,12.45,5.37,3.39,11.57,5.09,18.59,5.09,7.71,0,14.32-1.63,19.81-4.91,5.49-3.27,9.99-7.54,13.5-12.8,3.51-5.26,6.08-11.22,7.71-17.88,1.63-6.67,2.45-13.38,2.45-20.17,0-11.93-2.63-21.16-7.89-27.7-5.26-6.54-11.87-11.93-19.81-16.14-7.95-4.21-16.55-8.06-25.78-11.57-9.24-3.51-17.83-8.24-25.78-14.21-7.95-5.96-14.56-13.91-19.82-23.85-5.26-9.94-7.89-23.44-7.89-40.51,0-8.89,1.52-17.42,4.56-25.6,3.04-8.18,7.48-15.43,13.33-21.75,5.84-6.31,13.03-11.34,21.57-15.08,8.53-3.74,18.18-5.61,28.94-5.61Z"/>
      <path class="cls-1" d="M1816.46,145.66c0,3.98.47,6.78,1.4,8.42.93,1.64,2.34,2.45,4.21,2.45s4.21-.58,7.02-1.75c2.8-1.17,6.02-2.57,9.64-4.21,3.63-1.63,7.66-3.39,12.1-5.26,4.44-1.87,9.23-3.51,14.38-4.91,7.24-1.87,12.86-4.39,16.84-7.54,3.97-3.15,6.95-5.96,8.94-8.41,1.98-2.45,3.21-4.09,3.68-4.91.47-.82.7.17.7,2.98v51.91c-.24,1.64-.59,2.45-1.05,2.45-.7,0-1.7-1-2.98-2.98-1.28-1.98-3.1-4.21-5.43-6.66-2.34-2.45-5.15-4.67-8.42-6.67-3.28-1.98-7.36-2.98-12.27-2.98s-10.58.59-16.31,1.75c-5.73,1.18-11,2.98-15.78,5.44-4.8,2.45-8.77,5.67-11.93,9.65-3.15,3.98-4.74,8.77-4.74,14.38v62.78c0,4.21.29,7.84.88,10.87.58,3.04,1.46,5.61,2.63,7.72h29.46c11.69,0,21.45-1.93,29.29-5.79,7.83-3.86,14.14-8.3,18.94-13.33,4.79-5.02,8.42-9.99,10.87-14.9,2.45-4.91,4.15-8.36,5.08-10.35.93-1.98,1.46-1.81,1.58.53.11,2.34.17,8.19.17,17.53v37.88h-145.55c-2.57-.47-3.39-.76-2.45-.88.93-.11,2.51-.93,4.74-2.45,2.22-1.52,4.5-4.32,6.84-8.42,2.33-4.08,3.51-10.22,3.51-18.41V42.55c0-8.18-1.18-14.32-3.51-18.41-2.34-4.09-4.62-6.89-6.84-8.42-2.22-1.52-3.8-2.33-4.74-2.45-.93-.11-.12-.41,2.45-.88h148c-1.4,9.82-2.58,18.12-3.51,24.9-.93,6.79-1.75,12.22-2.45,16.31-.7,4.09-1.29,7.02-1.75,8.77-.47,1.75-.94,2.63-1.41,2.63-.93,0-2.28-2.16-4.03-6.49-1.75-4.32-4.62-9-8.59-14.03-3.98-5.02-9.47-9.7-16.48-14.03-7.02-4.32-16.25-6.49-27.71-6.49h-31.91c-1.17,2.1-2.05,4.68-2.63,7.71-.59,3.04-.88,6.66-.88,10.87v103.11Z"/>
      <path class="cls-1" d="M575.78,286.64c-12.16,0-22.79-1.76-31.91-5.26-9.12-3.51-16.72-8-22.79-13.5-6.09-5.49-10.64-11.57-13.68-18.24-3.04-6.66-4.56-13.27-4.56-19.81V67.8c0-6.54,1.52-13.15,4.56-19.81,3.04-6.67,7.59-12.74,13.68-18.24,6.08-5.49,13.68-9.99,22.79-13.5,9.12-3.51,19.76-5.26,31.91-5.26s22.8,1.75,31.91,5.26c9.12,3.51,16.72,7.95,22.8,13.33,6.08,5.38,10.64,11.46,13.68,18.24,3.04,6.78,4.56,13.33,4.56,19.64v162.73c0,6.31-1.52,12.86-4.56,19.64-3.04,6.78-7.6,12.86-13.68,18.23-6.08,5.38-13.68,9.82-22.8,13.33-9.12,3.51-19.76,5.26-31.91,5.26ZM575.78,22.55c-9.59,0-16.95,2.4-22.09,7.19-5.14,4.8-8.89,10.41-11.22,16.84-2.34,6.43-3.68,12.8-4.03,19.11-.35,6.31-.52,11.11-.52,14.38v137.48c0,3.04.17,7.78.52,14.21.35,6.43,1.69,12.86,4.03,19.29,2.34,6.43,6.08,12.04,11.22,16.83,5.14,4.8,12.51,7.19,22.09,7.19s16.95-2.33,22.09-7.02c5.14-4.67,8.95-10.17,11.4-16.48,2.45-6.31,3.86-12.68,4.21-19.12.35-6.43.53-11.4.53-14.9V80.07c0-3.51-.18-8.47-.53-14.9-.35-6.43-1.75-12.8-4.21-19.12-2.45-6.31-6.26-11.8-11.4-16.48-5.14-4.67-12.51-7.02-22.09-7.02Z"/>
      <path class="cls-1" d="M1040.52,281.74c-6.31,0-12.33-1.17-18.06-3.51-5.74-2.33-10.76-5.55-15.08-9.65-4.33-4.09-7.71-8.94-10.17-14.56-2.45-5.61-3.68-11.69-3.68-18.23V59.04c0-6.54,1.28-12.62,3.86-18.24,2.57-5.61,6.02-10.52,10.35-14.73,4.32-4.21,9.35-7.54,15.08-9.99,5.73-2.45,11.75-3.68,18.06-3.68h83.47c-3.28,10.76-6.09,19.7-8.42,26.83-2.34,7.13-4.21,12.92-5.61,17.36-1.4,4.45-2.57,7.6-3.51,9.47-.93,1.87-1.64,2.8-2.1,2.8-.94,0-1.64-2.33-2.11-7.01-.47-4.68-1.58-9.82-3.33-15.43-1.75-5.61-4.56-10.75-8.42-15.43-3.86-4.67-9.65-7.01-17.36-7.01h-19.99c-5.15,0-9.35,1.81-12.62,5.43-3.28,3.63-5.91,7.95-7.89,12.98-1.99,5.03-3.33,10.23-4.03,15.6-.7,5.38-1.05,9.82-1.05,13.33v152.21c0,3.5.29,7.89.88,13.15.58,5.26,1.75,10.41,3.51,15.43,1.75,5.03,4.32,9.29,7.71,12.8,3.39,3.51,7.89,5.26,13.5,5.26h24.9c4.21,0,8.65-1.93,13.33-5.79,4.67-3.86,9.12-8.07,13.33-12.62,4.21-4.56,8.01-8.77,11.4-12.63,3.39-3.86,5.9-5.78,7.54-5.78.93,0,1.52.82,1.76,2.45.23,1.64,0,4.33-.7,8.06-.7,3.74-1.81,8.71-3.33,14.9-1.52,6.2-3.56,13.86-6.14,22.97h-75.05Z"/>
      <path class="cls-1" d="M1212.68,288.05c-12.16,0-22.79-1.76-31.91-5.26-9.12-3.51-16.72-8-22.79-13.5-6.09-5.49-10.64-11.57-13.68-18.24-3.04-6.66-4.56-13.27-4.56-19.81V69.2c0-6.54,1.52-13.15,4.56-19.81,3.04-6.67,7.59-12.74,13.68-18.24,6.08-5.49,13.68-9.99,22.79-13.5,9.12-3.51,19.76-5.26,31.91-5.26s22.8,1.75,31.91,5.26c9.12,3.51,16.72,7.95,22.8,13.33,6.08,5.38,10.64,11.46,13.68,18.24,3.04,6.78,4.56,13.33,4.56,19.64v162.73c0,6.31-1.52,12.86-4.56,19.64-3.04,6.78-7.6,12.86-13.68,18.23-6.08,5.38-13.68,9.82-22.8,13.33-9.12,3.51-19.76,5.26-31.91,5.26ZM1212.68,23.96c-9.59,0-16.95,2.4-22.09,7.19-5.14,4.8-8.89,10.41-11.22,16.84-2.34,6.43-3.68,12.8-4.03,19.11-.35,6.31-.52,11.11-.52,14.38v137.48c0,3.04.17,7.78.52,14.21.35,6.43,1.69,12.86,4.03,19.29,2.34,6.43,6.08,12.04,11.22,16.83,5.14,4.8,12.51,7.19,22.09,7.19s16.95-2.33,22.09-7.02c5.14-4.67,8.95-10.17,11.4-16.48,2.45-6.31,3.86-12.68,4.21-19.12.35-6.43.53-11.4.53-14.9V81.48c0-3.51-.18-8.47-.53-14.9-.35-6.43-1.75-12.8-4.21-19.12-2.45-6.31-6.26-11.8-11.4-16.48-5.14-4.67-12.51-7.02-22.09-7.02Z"/>
      <path class="cls-1" d="M1293.76,12.39h59.27c2.57.47,3.39.76,2.45.88-.94.12-2.52.93-4.74,2.45-2.23,1.52-4.5,4.33-6.84,8.42-2.34,4.09-3.51,10.23-3.51,18.41v168.34c0,8.19.64,15.91,1.93,23.15,1.28,7.25,3.45,13.56,6.49,18.94,3.04,5.38,7.19,9.59,12.45,12.62,5.26,3.04,11.75,4.56,19.47,4.56,14.49,0,24.72-5.26,30.69-15.78,5.96-10.52,8.94-24.67,8.94-42.44V42.55c0-8.18-1.17-14.32-3.5-18.41-2.34-4.09-4.62-6.89-6.84-8.42-2.22-1.52-3.8-2.33-4.74-2.45-.93-.11-.12-.41,2.45-.88h36.82c2.57.47,3.39.76,2.45.88-.93.12-2.52.93-4.74,2.45-2.22,1.52-4.5,4.33-6.84,8.42-2.34,4.09-3.51,10.23-3.51,18.41v168.7c0,9.12-.82,17.88-2.45,26.3-1.64,8.42-4.68,15.9-9.12,22.44-4.44,6.55-10.64,11.81-18.59,15.78-7.95,3.98-18.24,5.96-30.86,5.96-20.11,0-35.89-5.61-47.34-16.84-11.46-11.22-17.18-29.11-17.18-53.66V42.55c0-8.18-1.18-14.32-3.51-18.41-2.34-4.09-4.62-6.89-6.84-8.42-2.22-1.52-3.8-2.33-4.74-2.45-.93-.11-.12-.41,2.45-.88Z"/>
      <path class="cls-1" d="M1462.74,42.55c0-8.18-1.18-14.32-3.51-18.41-2.34-4.09-4.62-6.89-6.84-8.42-2.22-1.52-3.8-2.33-4.74-2.45-.93-.11-.12-.41,2.45-.88h74.7c11.93,0,22.74,1.4,32.44,4.21,9.7,2.8,18.06,7.19,25.07,13.15,7.02,5.96,12.39,13.68,16.13,23.15,3.74,9.47,5.61,20.87,5.61,34.2,0,9.35-1.05,18.36-3.16,27-2.11,8.65-5.38,16.49-9.82,23.5-4.44,7.02-10.17,12.93-17.18,17.71-7.02,4.8-15.55,8.13-25.6,9.99,8.89,1.64,16.31,4.91,22.27,9.82,5.96,4.91,10.87,11.11,14.73,18.59,3.86,7.49,6.6,16.13,8.24,25.95,1.63,9.82,2.45,20.47,2.45,31.91,0,8.19,1.17,14.33,3.51,18.41,2.33,4.1,4.61,6.9,6.84,8.42,2.22,1.52,3.8,2.34,4.74,2.45.93.12.11.41-2.45.88h-46.65v-35.42c0-14.49-1.17-26.59-3.5-36.3-2.34-9.7-5.32-17.48-8.95-23.32-3.63-5.84-7.71-10.05-12.27-12.63-4.56-2.57-9.06-3.86-13.5-3.86-6.08,0-11.63,1.76-16.66,5.26-5.03,3.51-8.48,7.95-10.35,13.33v62.78c0,8.19,1.17,14.33,3.51,18.41,2.34,4.1,4.61,6.9,6.84,8.42,2.22,1.52,3.8,2.34,4.74,2.45.93.12.11.41-2.45.88h-59.27c-2.57-.47-3.39-.76-2.45-.88.93-.11,2.51-.93,4.74-2.45,2.22-1.52,4.5-4.32,6.84-8.42,2.33-4.08,3.51-10.22,3.51-18.41V42.55ZM1496.76,177.23c2.11-6.54,5.32-11.17,9.65-13.85,4.32-2.69,9.12-4.91,14.38-6.67,5.26-1.75,10.64-3.62,16.13-5.61,5.49-1.98,10.52-5.49,15.08-10.52,4.56-5.03,8.3-12.16,11.22-21.4,2.92-9.23,4.39-21.92,4.39-38.05,0-19.64-4.33-34.07-12.98-43.31-8.65-9.23-22.92-13.85-42.78-13.85h-15.08v153.26Z"/>
      <path class="cls-1" d="M1689.79,12.39h70.49c-2.11,8.65-3.92,15.84-5.43,21.57-1.52,5.73-2.93,10.34-4.21,13.85s-2.4,6.02-3.33,7.54c-.94,1.52-1.87,2.28-2.81,2.28-1.4,0-2.98-1.75-4.74-5.26-1.75-3.51-4.03-7.36-6.84-11.58-2.8-4.21-6.49-8.06-11.05-11.57-4.56-3.51-10.47-5.26-17.71-5.26-7.71,0-14.44,1.52-20.16,4.56-5.73,3.04-10.41,7.14-14.03,12.27-3.63,5.15-6.32,10.93-8.07,17.36-1.75,6.43-2.63,13.04-2.63,19.81,0,12.86,2.57,22.79,7.71,29.81,5.14,7.02,11.51,12.69,19.12,17.01,7.59,4.33,15.78,8.24,24.55,11.75,8.77,3.51,16.95,8.13,24.55,13.86,7.59,5.73,13.91,13.5,18.94,23.32,5.03,9.82,7.54,23.27,7.54,40.33,0,8.65-1.81,17.07-5.43,25.25-3.63,8.19-8.83,15.43-15.61,21.75-6.78,6.31-14.9,11.34-24.38,15.08-9.47,3.74-20.05,5.61-31.74,5.61h-55.06c-.94-17.3-1.58-30.69-1.93-40.16-.35-9.47-.41-16.13-.17-19.99.23-3.86.88-5.32,1.93-4.39,1.05.94,2.57,3.22,4.56,6.84,1.98,3.63,4.44,8.07,7.36,13.33,2.92,5.26,6.49,10.34,10.7,15.25,4.21,4.91,9,9.06,14.38,12.45,5.37,3.39,11.57,5.09,18.59,5.09,7.71,0,14.32-1.63,19.81-4.91,5.49-3.27,9.99-7.54,13.5-12.8,3.51-5.26,6.08-11.22,7.71-17.88,1.63-6.67,2.45-13.38,2.45-20.17,0-11.93-2.63-21.16-7.89-27.7-5.26-6.54-11.87-11.93-19.81-16.14-7.95-4.21-16.55-8.06-25.78-11.57-9.24-3.51-17.83-8.24-25.78-14.21-7.95-5.96-14.56-13.91-19.82-23.85-5.26-9.94-7.89-23.44-7.89-40.51,0-8.89,1.52-17.42,4.56-25.6,3.04-8.18,7.48-15.43,13.33-21.75,5.84-6.31,13.03-11.34,21.57-15.08,8.53-3.74,18.18-5.61,28.94-5.61Z"/>
      <path class="cls-1" d="M1816.46,145.66c0,3.98.47,6.78,1.4,8.42.93,1.64,2.34,2.45,4.21,2.45s4.21-.58,7.02-1.75c2.8-1.17,6.02-2.57,9.64-4.21,3.63-1.63,7.66-3.39,12.1-5.26,4.44-1.87,9.23-3.51,14.38-4.91,7.24-1.87,12.86-4.39,16.84-7.54,3.97-3.15,6.95-5.96,8.94-8.41,1.98-2.45,3.21-4.09,3.68-4.91.47-.82.7.17.7,2.98v51.91c-.24,1.64-.59,2.45-1.05,2.45-.7,0-1.7-1-2.98-2.98-1.28-1.98-3.1-4.21-5.43-6.66-2.34-2.45-5.15-4.67-8.42-6.67-3.28-1.98-7.36-2.98-12.27-2.98s-10.58.59-16.31,1.75c-5.73,1.18-11,2.98-15.78,5.44-4.8,2.45-8.77,5.67-11.93,9.65-3.15,3.98-4.74,8.77-4.74,14.38v62.78c0,4.21.29,7.84.88,10.87.58,3.04,1.46,5.61,2.63,7.72h29.46c11.69,0,21.45-1.93,29.29-5.79,7.83-3.86,14.14-8.3,18.94-13.33,4.79-5.02,8.42-9.99,10.87-14.9,2.45-4.91,4.15-8.36,5.08-10.35.93-1.98,1.46-1.81,1.58.53.11,2.34.17,8.19.17,17.53v37.88h-145.55c-2.57-.47-3.39-.76-2.45-.88.93-.11,2.51-.93,4.74-2.45,2.22-1.52,4.5-4.32,6.84-8.42,2.33-4.08,3.51-10.22,3.51-18.41V42.55c0-8.18-1.18-14.32-3.51-18.41-2.34-4.09-4.62-6.89-6.84-8.42-2.22-1.52-3.8-2.33-4.74-2.45-.93-.11-.12-.41,2.45-.88h148c-1.4,9.82-2.58,18.12-3.51,24.9-.93,6.79-1.75,12.22-2.45,16.31-.7,4.09-1.29,7.02-1.75,8.77-.47,1.75-.94,2.63-1.41,2.63-.93,0-2.28-2.16-4.03-6.49-1.75-4.32-4.62-9-8.59-14.03-3.98-5.02-9.47-9.7-16.48-14.03-7.02-4.32-16.25-6.49-27.71-6.49h-31.91c-1.17,2.1-2.05,4.68-2.63,7.71-.59,3.04-.88,6.66-.88,10.87v103.11Z"/>
      <path class="cls-1" d="M851.86,132.53c33.09,5.21,68.53,6,93.99-17.14-.89,19.31-7.32,28.46-12.98,33.24-34.63,29.26-122.5-35.46-203.34-22.97-22.87,3.53-36.31,11.88-45.13,20.73-12.53,12.58-17.11,27.57-18.98,36.1-16.11-116.95,126.06-60.64,186.43-49.96Z"/>
      <g>
        <path class="cls-1" d="M888.03,277c-2.23-1.52-4.51-4.32-6.84-8.42-2.34-4.08-3.51-10.22-3.51-18.41v-92.59c-11.34-2.45-22.68-4.91-34.02-7.36v99.95c0,8.19-1.17,14.33-3.5,18.41-2.34,4.1-4.62,6.9-6.84,8.42-2.22,1.52-3.8,2.34-4.74,2.45-.93.12-.12.41,2.45.88h59.27c2.57-.47,3.39-.76,2.45-.88-.93-.11-2.51-.93-4.73-2.45Z"/>
        <path class="cls-1" d="M831.03,10.98c-2.58.47-3.39.76-2.45.88.93.12,2.51.93,4.74,2.45,2.22,1.52,4.5,4.33,6.84,8.42,2.33,4.09,3.5,10.23,3.5,18.41v89.76c-34.19-7.24-87-23.89-126.53-20.88V41.15c0-4.21.29-7.83.88-10.87.58-3.04,1.46-5.61,2.63-7.71h31.91c10.29,0,19.34,2.1,27.18,6.31,7.83,4.21,14.44,8.89,19.81,14.03,5.38,5.15,9.7,9.82,12.98,14.03,3.27,4.21,5.61,6.31,7.02,6.31.7,0,1.11-.88,1.23-2.63.11-1.76-.06-4.62-.53-8.59-.47-3.98-1.23-9.35-2.28-16.14-1.05-6.78-2.28-15.08-3.68-24.9h-143.79c-2.57.47-3.39.76-2.45.88.93.12,2.51.93,4.74,2.45,2.22,1.52,4.5,4.33,6.84,8.42,2.33,4.09,3.51,10.23,3.51,18.41v79.65c-14.54,10.5-22.13,29.51-17.7,61.7,1.87-8.52,6.45-23.52,18.98-36.1,8.82-8.86,22.26-17.2,45.13-20.73,80.84-12.49,168.71,52.24,203.34,22.97,5.66-4.79,12.09-13.93,12.98-33.24-18.9,17.18-43.31,21.15-68.17,19.94V41.14c0-4.21.29-7.83.88-10.87.58-3.04,1.46-5.61,2.63-7.71h31.91c10.29,0,18.76,2.34,25.43,7.01,6.66,4.68,11.98,9.82,15.96,15.43,3.97,5.61,7.01,10.75,9.12,15.43,2.11,4.68,3.86,7.01,5.26,7.01.7,0,1.41-.93,2.11-2.8.7-1.87,1.4-5.02,2.11-9.47.7-4.44,1.52-10.23,2.45-17.36.93-7.13,2.11-16.07,3.51-26.83h-148Z"/>
        <path class="cls-1" d="M727.48,277c-2.23-1.52-4.5-4.32-6.84-8.42-2.34-4.08-3.51-10.22-3.51-18.41v-116.7c-5.35,1.39-11.78,3.62-18.62,7.31-6.29,3.39-11.39,7.19-15.4,10.71v98.68c0,8.19-1.18,14.33-3.51,18.41-2.34,4.1-4.62,6.9-6.84,8.42-2.22,1.52-3.8,2.34-4.74,2.45-.93.12-.12.41,2.45.88h59.27c2.57-.47,3.39-.76,2.45-.88-.94-.11-2.52-.93-4.74-2.45Z"/>
      </g>
    </g>
    <g>
      <path class="cls-1" d="M789.46,336.45h14.72c.64.12.84.19.61.22-.23.03-.57.25-1,.65-.44.41-.81,1.09-1.13,2.05-.32.96-.25,2.4.22,4.31l11.85,29.36,10.72-29.19c.81-1.92,1.18-3.35,1.09-4.31-.09-.96-.29-1.66-.61-2.09-.32-.44-.57-.68-.74-.74-.17-.06.06-.14.7-.26h9.15c.64.12.78.2.44.26-.35.06-.93.32-1.74.78-.81.47-1.76,1.22-2.83,2.27-1.08,1.05-1.99,2.58-2.74,4.62l-11.94,32.41v19.17c0,2.03.29,3.56.87,4.57.58,1.02,1.15,1.71,1.7,2.09.55.38.94.58,1.18.61.23.03.03.1-.61.22h-14.72c-.64-.12-.84-.19-.61-.22.23-.03.62-.23,1.18-.61.55-.38,1.12-1.07,1.7-2.09.58-1.02.87-2.54.87-4.57v-19.17l-13.24-32.93c-.76-1.92-1.57-3.35-2.44-4.31-.87-.96-1.61-1.66-2.22-2.09-.61-.44-.99-.68-1.13-.74-.14-.06.1-.14.74-.26Z"/>
      <path class="cls-1" d="M854.63,404.24c-3.02,0-5.66-.44-7.93-1.31-2.27-.87-4.15-1.99-5.66-3.35-1.51-1.36-2.64-2.88-3.4-4.53-.76-1.66-1.13-3.3-1.13-4.92v-40.25c0-1.62.38-3.27,1.13-4.92.75-1.66,1.89-3.17,3.4-4.53,1.51-1.36,3.4-2.48,5.66-3.35,2.27-.87,4.91-1.31,7.93-1.31s5.66.44,7.93,1.31c2.27.87,4.15,1.98,5.66,3.31,1.51,1.34,2.64,2.85,3.4,4.53.75,1.69,1.13,3.31,1.13,4.88v40.43c0,1.57-.38,3.19-1.13,4.88-.76,1.69-1.89,3.19-3.4,4.53-1.51,1.34-3.4,2.44-5.66,3.31-2.27.87-4.91,1.31-7.93,1.31ZM854.63,338.63c-2.38,0-4.21.6-5.49,1.79-1.28,1.19-2.21,2.58-2.79,4.18-.58,1.6-.91,3.18-1,4.75-.09,1.57-.13,2.76-.13,3.57v34.15c0,.76.04,1.93.13,3.53.09,1.6.42,3.19,1,4.79.58,1.6,1.51,2.99,2.79,4.18,1.28,1.19,3.11,1.79,5.49,1.79s4.21-.58,5.49-1.74c1.28-1.16,2.22-2.53,2.83-4.09s.96-3.15,1.05-4.75c.09-1.6.13-2.83.13-3.7v-34.15c0-.87-.04-2.1-.13-3.7-.09-1.6-.44-3.18-1.05-4.75s-1.55-2.93-2.83-4.09c-1.28-1.16-3.11-1.74-5.49-1.74Z"/>
      <path class="cls-1" d="M878.24,336.54h14.72c.64.12.84.19.61.22-.23.03-.62.23-1.18.61-.55.38-1.12,1.08-1.7,2.09-.58,1.02-.87,2.54-.87,4.57v41.82c0,2.03.16,3.95.48,5.75.32,1.8.86,3.37,1.61,4.7.75,1.34,1.79,2.38,3.09,3.14,1.31.76,2.92,1.13,4.84,1.13,3.6,0,6.14-1.31,7.62-3.92,1.48-2.61,2.22-6.13,2.22-10.54v-42.08c0-2.03-.29-3.56-.87-4.57-.58-1.02-1.15-1.71-1.7-2.09-.55-.38-.94-.58-1.18-.61-.23-.03-.03-.1.61-.22h9.15c.64.12.84.19.61.22-.23.03-.62.23-1.18.61-.55.38-1.12,1.08-1.7,2.09-.58,1.02-.87,2.54-.87,4.57v41.91c0,2.27-.2,4.44-.61,6.53-.41,2.09-1.16,3.95-2.27,5.58-1.1,1.63-2.64,2.93-4.62,3.92-1.98.99-4.53,1.48-7.67,1.48-5,0-8.92-1.39-11.76-4.18-2.85-2.79-4.27-7.23-4.27-13.33v-41.91c0-2.03-.29-3.56-.87-4.57-.58-1.02-1.15-1.71-1.7-2.09-.55-.38-.94-.58-1.18-.61-.23-.03-.03-.1.61-.22Z"/>
      <path class="cls-1" d="M925.03,344.03c0-2.03-.29-3.56-.87-4.57-.58-1.02-1.15-1.71-1.7-2.09-.55-.38-.94-.58-1.18-.61-.23-.03-.03-.1.61-.22h18.56c2.96,0,5.65.35,8.06,1.05,2.41.7,4.49,1.79,6.23,3.27s3.08,3.4,4.01,5.75c.93,2.35,1.39,5.18,1.39,8.49,0,2.32-.26,4.56-.78,6.71-.52,2.15-1.34,4.09-2.44,5.84-1.1,1.74-2.53,3.21-4.27,4.4-1.74,1.19-3.86,2.02-6.36,2.48,2.21.41,4.05,1.22,5.53,2.44,1.48,1.22,2.7,2.76,3.66,4.62.96,1.86,1.64,4.01,2.05,6.45.41,2.44.61,5.08.61,7.93,0,2.03.29,3.56.87,4.57.58,1.02,1.15,1.71,1.7,2.09.55.38.94.58,1.18.61.23.03.03.1-.61.22h-11.59v-8.8c0-3.6-.29-6.61-.87-9.02-.58-2.41-1.32-4.34-2.22-5.79-.9-1.45-1.92-2.5-3.05-3.14-1.13-.64-2.25-.96-3.35-.96-1.51,0-2.89.44-4.14,1.31-1.25.87-2.11,1.98-2.57,3.31v15.6c0,2.03.29,3.56.87,4.57.58,1.02,1.15,1.71,1.7,2.09.55.38.94.58,1.18.61.23.03.03.1-.61.22h-14.72c-.64-.12-.84-.19-.61-.22.23-.03.62-.23,1.18-.61.55-.38,1.12-1.07,1.7-2.09.58-1.02.87-2.54.87-4.57v-51.93ZM933.48,377.49c.52-1.63,1.32-2.77,2.4-3.44,1.07-.67,2.27-1.22,3.57-1.66,1.31-.44,2.64-.9,4.01-1.39,1.36-.49,2.61-1.36,3.75-2.61,1.13-1.25,2.06-3.02,2.79-5.31.73-2.29,1.09-5.44,1.09-9.45,0-4.88-1.08-8.46-3.22-10.76-2.15-2.29-5.69-3.44-10.63-3.44h-3.75v38.07Z"/>
      <path class="cls-1" d="M993.68,403.45c-.64-.12-.84-.19-.61-.22.23-.03.62-.23,1.18-.61.55-.38,1.12-1.07,1.7-2.09.58-1.02.87-2.54.87-4.57v-51.93c0-2.03-.29-3.56-.87-4.57-.58-1.02-1.15-1.71-1.7-2.09-.55-.38-.94-.58-1.18-.61-.23-.03-.03-.1.61-.22h36.77c-.35,2.67-.64,4.89-.87,6.67-.23,1.77-.44,3.21-.61,4.31-.17,1.1-.35,1.89-.52,2.35-.17.47-.35.7-.52.7-.35,0-.78-.58-1.31-1.74-.52-1.16-1.28-2.44-2.27-3.83-.99-1.39-2.31-2.67-3.96-3.83-1.66-1.16-3.76-1.74-6.32-1.74h-7.93c-.29.52-.51,1.16-.65,1.92-.15.76-.22,1.66-.22,2.7v23.7c0,1.69.1,2.86.31,3.53.2.67.57,1,1.09,1,.41,0,.94-.14,1.61-.44.67-.29,1.48-.64,2.44-1.05.96-.41,2.09-.83,3.4-1.26,1.31-.44,2.8-.8,4.49-1.09,1.92-.35,3.35-.86,4.31-1.52.96-.67,1.63-1.26,2-1.79.38-.52.59-.86.65-1,.06-.14.12.16.17.91v11.5c-.06.41-.15.61-.26.61-.17,0-.42-.25-.74-.74-.32-.49-.77-1.05-1.35-1.66-.58-.61-1.28-1.16-2.09-1.66-.81-.49-1.83-.74-3.05-.74s-2.67.13-4.18.39c-1.51.26-2.92.7-4.23,1.31-1.31.61-2.4,1.45-3.27,2.53-.87,1.08-1.31,2.4-1.31,3.96v15.42c0,2.03.29,3.56.87,4.57.58,1.02,1.15,1.71,1.7,2.09.55.38.94.58,1.18.61.23.03.03.1-.61.22h-14.72Z"/>
      <path class="cls-1" d="M1095.26,397.88c.64-.46.73-.38.26.26-.76,1.05-1.7,1.99-2.83,2.83-1.13.84-2.41,1.57-3.83,2.18-1.42.61-2.93,1.07-4.53,1.39-1.6.32-3.24.48-4.92.48s-3.47-.2-5.18-.61c-1.71-.41-3.31-1.07-4.79-2-1.48-.93-2.79-2.1-3.92-3.53-1.13-1.42-1.99-3.15-2.57-5.18-.41-1.34-.73-2.89-.96-4.66-.23-1.77-.54-3.51-.92-5.23-.38-1.71-.89-3.27-1.52-4.66-.64-1.39-1.54-2.35-2.7-2.88-.87-.35-1.74-.52-2.61-.52-1.51,0-2.89.44-4.14,1.31-1.25.87-2.11,1.98-2.57,3.31v15.6c0,2.03.29,3.56.87,4.57.58,1.02,1.15,1.71,1.7,2.09.55.38.94.58,1.18.61.23.03.03.1-.61.22h-14.72c-.64-.12-.84-.19-.61-.22.23-.03.62-.23,1.18-.61.55-.38,1.12-1.07,1.7-2.09.58-1.02.87-2.54.87-4.57v-51.93c0-2.03-.29-3.56-.87-4.57-.58-1.02-1.15-1.71-1.7-2.09-.55-.38-.94-.58-1.18-.61-.23-.03-.03-.1.61-.22h18.56c2.96,0,5.65.35,8.06,1.05,2.41.7,4.49,1.79,6.23,3.27s3.08,3.4,4.01,5.75c.93,2.35,1.39,5.18,1.39,8.49,0,2.32-.26,4.56-.78,6.71-.52,2.15-1.34,4.09-2.44,5.84-1.1,1.74-2.53,3.21-4.27,4.4-1.74,1.19-3.86,2.02-6.36,2.48,2.09.41,3.66,1.12,4.71,2.13,1.05,1.02,1.89,2.31,2.53,3.88.64,1.57,1.22,3.38,1.74,5.45.52,2.06,1.31,4.31,2.35,6.75,1.34,2.96,3.18,5.1,5.53,6.4,2.35,1.31,4.86,1.96,7.54,1.96,1.86,0,3.7-.29,5.53-.87,1.83-.58,3.5-1.36,5.01-2.35ZM1047.52,339.42v38.07c.52-1.63,1.32-2.77,2.4-3.44,1.07-.67,2.27-1.22,3.57-1.66,1.31-.44,2.64-.9,4.01-1.39,1.36-.49,2.61-1.36,3.75-2.61,1.13-1.25,2.06-3.02,2.79-5.31.73-2.29,1.09-5.44,1.09-9.45,0-4.88-1.08-8.46-3.22-10.76-2.15-2.29-5.69-3.44-10.63-3.44h-3.75ZM1082.72,384.63v-40.6c0-2.03-.29-3.56-.87-4.57-.58-1.02-1.15-1.71-1.7-2.09-.55-.38-.94-.58-1.18-.61-.23-.03-.03-.1.61-.22h14.72c.64.12.84.19.61.22-.23.03-.62.23-1.18.61-.55.38-1.12,1.08-1.7,2.09-.58,1.02-.87,2.54-.87,4.57v40.6c0,2.03.29,3.56.87,4.57.58,1.02,1.15,1.71,1.7,2.09.55.38.94.58,1.18.61.23.03.03.1-.61.22h-14.72c-.64-.12-.84-.19-.61-.22.23-.03.62-.23,1.18-.61.55-.38,1.12-1.07,1.7-2.09.58-1.02.87-2.54.87-4.57Z"/>
      <path class="cls-1" d="M1114.43,369.65c0,.99.12,1.69.35,2.09.23.41.58.61,1.05.61s1.05-.14,1.74-.44c.7-.29,1.49-.64,2.4-1.05.9-.41,1.9-.84,3.01-1.31,1.1-.46,2.29-.87,3.57-1.22,1.8-.46,3.19-1.09,4.18-1.87.99-.78,1.73-1.48,2.22-2.09.49-.61.8-1.02.92-1.22.12-.2.17.04.17.74v12.89c-.06.41-.15.61-.26.61-.17,0-.42-.25-.74-.74-.32-.49-.77-1.05-1.35-1.66-.58-.61-1.28-1.16-2.09-1.66-.81-.49-1.83-.74-3.05-.74s-2.63.15-4.05.44c-1.42.29-2.73.74-3.92,1.35-1.19.61-2.18,1.41-2.96,2.4-.78.99-1.18,2.18-1.18,3.57v15.6c0,1.05.07,1.95.22,2.7.14.76.36,1.39.65,1.92h7.32c2.9,0,5.33-.48,7.27-1.44,1.95-.96,3.51-2.06,4.71-3.31,1.19-1.25,2.09-2.48,2.7-3.7s1.03-2.08,1.26-2.57c.23-.49.36-.45.39.13.03.58.04,2.03.04,4.36v9.41h-36.16c-.64-.12-.84-.19-.61-.22.23-.03.62-.23,1.18-.61.55-.38,1.12-1.07,1.7-2.09.58-1.02.87-2.54.87-4.57v-51.93c0-2.03-.29-3.56-.87-4.57-.58-1.02-1.15-1.71-1.7-2.09-.55-.38-.94-.58-1.18-.61-.23-.03-.03-.1.61-.22h36.77c-.35,2.44-.64,4.5-.87,6.19-.23,1.69-.44,3.04-.61,4.05-.17,1.02-.32,1.74-.44,2.18-.12.44-.23.65-.35.65-.23,0-.57-.54-1-1.61-.44-1.07-1.15-2.24-2.13-3.48-.99-1.25-2.35-2.41-4.09-3.48-1.74-1.07-4.04-1.61-6.88-1.61h-7.93c-.29.52-.51,1.16-.65,1.92-.15.76-.22,1.66-.22,2.7v25.61Z"/>
      <path class="cls-1" d="M1152.76,358.32c-.35-1.22-.57-1.83-.65-1.83s-.13.64-.13,1.92v34.68c0,2.79.29,4.87.87,6.23.58,1.37,1.15,2.34,1.7,2.92.55.58.94.9,1.18.96.23.06.03.15-.61.26h-9.15c-.64-.12-.84-.2-.61-.26.23-.06.62-.38,1.18-.96.55-.58,1.12-1.55,1.7-2.92.58-1.36.87-3.44.87-6.23v-46.18c0-2.85-.29-4.97-.87-6.36-.58-1.39-1.15-2.37-1.7-2.92-.55-.55-.94-.84-1.18-.87-.23-.03-.03-.1.61-.22h14.03c.64.12.84.19.61.22-.23.03-.62.32-1.18.87s-1.12,1.52-1.7,2.92c-.58,1.39-.87,3.51-.87,6.36,0,1.98.51,3.92,1.52,5.84,1.02,1.92,2.31,3.83,3.88,5.75,1.57,1.92,3.3,3.86,5.18,5.84,1.89,1.98,3.7,4.02,5.45,6.14,1.74,2.12,3.3,4.31,4.66,6.58,1.36,2.27,2.31,4.65,2.83,7.14v-36.5c0-2.96-.29-5.18-.87-6.67-.58-1.48-1.15-2.54-1.7-3.18-.55-.64-.94-.99-1.18-1.05-.23-.06-.03-.14.61-.26h9.15c.64.12.84.2.61.26-.23.06-.62.41-1.18,1.05-.55.64-1.12,1.7-1.7,3.18-.58,1.48-.87,3.7-.87,6.67v55.76h-2.88c-.58-4.24-1.57-7.91-2.96-11.02-1.39-3.11-2.99-5.88-4.79-8.32-1.8-2.44-3.7-4.63-5.71-6.58-2-1.95-3.92-3.89-5.75-5.84-1.83-1.95-3.5-3.98-5.01-6.1-1.51-2.12-2.64-4.54-3.4-7.27Z"/>
      <path class="cls-1" d="M1193.53,336.54h19.25c4.18,0,7.55.91,10.11,2.74,2.56,1.83,4.53,4.31,5.92,7.45s2.32,6.81,2.79,11.02c.46,4.21.7,8.7.7,13.46s-.23,9.12-.7,13.07c-.47,3.95-1.39,7.35-2.79,10.19-1.39,2.85-3.35,5.05-5.88,6.62-2.53,1.57-5.88,2.35-10.06,2.35h-19.34c-.64-.12-.84-.19-.61-.22.23-.03.62-.23,1.18-.61.55-.38,1.12-1.07,1.7-2.09.58-1.02.87-2.54.87-4.57v-51.93c0-2.03-.29-3.56-.87-4.57-.58-1.02-1.15-1.71-1.7-2.09-.55-.38-.94-.58-1.18-.61-.23-.03-.03-.1.61-.22ZM1205.12,400.58h4.62c2.56,0,4.73-.78,6.53-2.35,1.8-1.57,3.27-3.67,4.4-6.32,1.13-2.64,1.95-5.75,2.44-9.32.49-3.57.74-7.36.74-11.37s-.25-7.91-.74-11.72c-.49-3.8-1.29-7.2-2.4-10.19-1.1-2.99-2.56-5.39-4.36-7.19-1.8-1.8-4.01-2.7-6.62-2.7h-4.62v61.16Z"/>
      <path class="cls-1" d="M1269.07,343.86c-.52-1.97-1.21-3.44-2.05-4.4-.84-.96-1.6-1.64-2.27-2.05-.67-.41-1.12-.64-1.35-.7-.23-.06-.03-.14.61-.26h14.72c.58.12.8.19.65.22-.15.03-.42.19-.83.48-.41.29-.78.78-1.13,1.48-.35.7-.44,1.77-.26,3.22l12.37,43.04,9.06-35.46c.7-3.43.86-6,.48-7.71-.38-1.71-.86-2.93-1.44-3.66-.58-.73-1.06-1.13-1.44-1.22-.38-.09-.25-.19.39-.3h9.15c.46.06.65.1.57.13-.09.03-.28.15-.57.35-.29.2-.65.52-1.09.96s-.8,1.1-1.09,2c-.29.9-.47,2.08-.52,3.53-.06,1.45.14,3.28.61,5.49l9.06,35.63,9.5-41.3c.41-1.86.45-3.24.13-4.14-.32-.9-.7-1.54-1.13-1.92-.44-.38-.76-.58-.96-.61-.2-.03.01-.1.65-.22h9.15c.64.12.83.19.57.22-.26.03-.73.25-1.39.65-.67.41-1.42,1.1-2.27,2.09-.84.99-1.5,2.47-1.96,4.44l-14.2,59.59h-3.05l-9.58-37.29-9.58,37.29h-3.05l-16.47-59.59Z"/>
      <path class="cls-1" d="M1337.2,395.96v-51.93c0-2.03-.29-3.56-.87-4.57-.58-1.02-1.15-1.71-1.7-2.09-.55-.38-.94-.58-1.18-.61-.23-.03-.03-.1.61-.22h14.72c.64.12.84.19.61.22-.23.03-.62.23-1.18.61-.55.38-1.12,1.08-1.7,2.09-.58,1.02-.87,2.54-.87,4.57v51.93c0,2.03.29,3.56.87,4.57.58,1.02,1.15,1.71,1.7,2.09.55.38.94.58,1.18.61.23.03.03.1-.61.22h-14.72c-.64-.12-.84-.19-.61-.22.23-.03.62-.23,1.18-.61.55-.38,1.12-1.07,1.7-2.09.58-1.02.87-2.54.87-4.57Z"/>
      <path class="cls-1" d="M1404.02,372.78c1.05-1.39,2.41-2.5,4.09-3.31,1.68-.81,3.37-1.22,5.05-1.22,1.05,0,2.05.16,3.01.48.96.32,1.81.83,2.57,1.52v-26.22c0-2.03-.29-3.56-.87-4.57-.58-1.02-1.15-1.71-1.7-2.09-.55-.38-.94-.58-1.18-.61-.23-.03-.03-.1.61-.22h14.72c.64.12.84.19.61.22-.23.03-.62.23-1.18.61-.55.38-1.12,1.08-1.7,2.09-.58,1.02-.87,2.54-.87,4.57v51.93c0,2.03.29,3.56.87,4.57.58,1.02,1.15,1.71,1.7,2.09.55.38.94.58,1.18.61.23.03.03.1-.61.22h-14.72c-.64-.12-.84-.19-.61-.22.23-.03.62-.23,1.18-.61.55-.38,1.12-1.07,1.7-2.09.58-1.02.87-2.54.87-4.57v-20.65c-.58-.93-1.42-1.61-2.53-2.05-1.1-.44-2.32-.65-3.66-.65-1.16,0-2.34.17-3.53.52-1.19.35-2.28.84-3.27,1.48-.99.64-1.8,1.45-2.44,2.44-.64.99-.99,2.09-1.05,3.31v15.6c0,2.03.29,3.56.87,4.57.58,1.02,1.15,1.71,1.7,2.09.55.38.94.58,1.18.61.23.03.03.1-.61.22h-14.72c-.64-.12-.84-.19-.61-.22.23-.03.62-.23,1.18-.61.55-.38,1.12-1.07,1.7-2.09.58-1.02.87-2.54.87-4.57v-50.01c0-.52-.09-1.16-.26-1.92-.17-.75-.49-1.47-.96-2.13-.47-.67-1.13-1.25-2-1.74-.87-.49-2-.74-3.4-.74h-6.01c-.58,0-1.02.25-1.31.74-.29.49-.51,1.08-.65,1.74-.15.67-.23,1.32-.26,1.96-.03.64-.04,1.13-.04,1.48v50.62c0,2.03.29,3.56.87,4.57.58,1.02,1.15,1.71,1.7,2.09.55.38.94.58,1.18.61.23.03.03.1-.61.22h-14.72c-.64-.12-.84-.19-.61-.22.23-.03.62-.23,1.18-.61.55-.38,1.12-1.07,1.7-2.09.58-1.02.87-2.54.87-4.57v-50.62c0-.35-.02-.84-.04-1.48-.03-.64-.1-1.29-.22-1.96-.12-.67-.33-1.25-.65-1.74-.32-.49-.77-.74-1.35-.74h-4.53c-1.28,0-2.4.6-3.35,1.79-.96,1.19-1.79,2.48-2.48,3.88-.7,1.39-1.31,2.69-1.83,3.88-.52,1.19-.96,1.79-1.31,1.79-.12,0-.26-.14-.44-.44v-13.77h51.14c.64.12.84.19.61.22-.23.03-.62.23-1.18.61-.55.38-1.12,1.08-1.7,2.09-.58,1.02-.87,2.54-.87,4.57v28.4c0,1.51.06,2.25.17,2.22.12-.03.64-.65,1.57-1.87Z"/>
      <path class="cls-1" d="M1467.88,396.05l12.28-47.22c.52-2.21.59-3.89.22-5.05-.38-1.16-.87-2.02-1.48-2.57-.61-.55-1.13-.9-1.57-1.05-.44-.14-.45-.25-.04-.31l12.37-3.31c.87,0,1.38.02,1.52.04.14.03.16.25.04.65-.12.41-.2,1.1-.26,2.09-.06.99.14,2.47.61,4.44l13.5,52.27c.52,1.98,1.19,3.46,2,4.44.81.99,1.55,1.69,2.22,2.09.67.41,1.13.62,1.39.65.26.03.07.1-.57.22h-14.72c-.58-.12-.8-.19-.65-.22.14-.03.42-.19.83-.48.41-.29.78-.78,1.13-1.48.35-.7.44-1.77.26-3.22l-2.35-8.28c-.23-.99-.8-1.9-1.7-2.74-.9-.84-1.96-1.6-3.18-2.27-1.22-.67-2.56-1.19-4.01-1.57-1.45-.38-2.88-.57-4.27-.57-2.03,0-3.85.45-5.45,1.35-1.6.9-2.69,2.43-3.27,4.57l-2.09,8.02c-.41,1.86-.45,3.24-.13,4.14.32.9.7,1.54,1.13,1.92.44.38.75.58.96.61.2.03-.02.1-.65.22h-9.15c-.64-.12-.83-.19-.57-.22.26-.03.73-.25,1.39-.65.67-.41,1.41-1.1,2.22-2.09.81-.99,1.48-2.47,2-4.44ZM1474.94,380.19c-.29,1.05-.33,1.63-.13,1.74.2.12.8-.14,1.79-.78,1.05-.64,2.24-1.13,3.57-1.48,1.34-.35,2.7-.52,4.09-.52,1.51,0,2.99.22,4.44.65,1.45.44,2.67,1.09,3.66,1.96l-9.32-32.76-8.1,31.19Z"/>
      <path class="cls-1" d="M1542.54,336.54h24.13c2.9,0,5.24.52,7.01,1.57,1.77,1.05,3.15,2.44,4.14,4.18.99,1.74,1.66,3.73,2,5.97.35,2.24.52,4.52.52,6.84,0,4.7-.93,8.32-2.79,10.85-1.86,2.53-4.97,4.2-9.32,5.01,3.95.17,6.95,1.69,9.02,4.53,2.06,2.85,3.09,6.56,3.09,11.15,0,2.96-.42,5.5-1.26,7.62-.84,2.12-1.92,3.86-3.22,5.23-1.31,1.37-2.77,2.37-4.4,3.01-1.63.64-3.22.96-4.79.96h-24.13c-.64-.12-.84-.19-.61-.22.23-.03.62-.23,1.18-.61.55-.38,1.12-1.07,1.7-2.09.58-1.02.87-2.54.87-4.57v-51.93c0-2.03-.29-3.56-.87-4.57-.58-1.02-1.15-1.71-1.7-2.09-.55-.38-.94-.58-1.18-.61-.23-.03-.03-.1.61-.22ZM1554.13,372.61c.35-.7.93-1.25,1.74-1.66.81-.41,1.71-.71,2.7-.91.99-.2,1.97-.33,2.96-.39.99-.06,1.83-.09,2.53-.09.99,0,1.92-.25,2.79-.74.87-.49,1.64-1.35,2.31-2.57.67-1.22,1.19-2.86,1.57-4.92.38-2.06.57-4.63.57-7.71,0-1.22-.07-2.64-.22-4.27-.15-1.63-.49-3.18-1.05-4.66-.55-1.48-1.35-2.73-2.4-3.75-1.05-1.02-2.44-1.52-4.18-1.52h-9.32v33.19ZM1554.13,400.58h9.32c1.63,0,2.95-.39,3.96-1.18,1.02-.78,1.81-1.83,2.4-3.14.58-1.31.97-2.8,1.18-4.49.2-1.68.31-3.4.31-5.14s-.12-3.47-.35-5.18c-.23-1.71-.64-3.24-1.22-4.57-.58-1.34-1.37-2.41-2.35-3.22-.99-.81-2.24-1.22-3.75-1.22h-2.18c-.87,0-1.76.09-2.66.26-.9.17-1.77.47-2.61.87-.84.41-1.52,1.05-2.05,1.92v25.09Z"/>
      <path class="cls-1" d="M1606.32,404.24c-3.02,0-5.66-.44-7.93-1.31-2.27-.87-4.15-1.99-5.66-3.35-1.51-1.36-2.64-2.88-3.4-4.53-.76-1.66-1.13-3.3-1.13-4.92v-40.25c0-1.62.38-3.27,1.13-4.92.75-1.66,1.89-3.17,3.4-4.53,1.51-1.36,3.4-2.48,5.66-3.35,2.27-.87,4.91-1.31,7.93-1.31s5.66.44,7.93,1.31c2.27.87,4.15,1.98,5.66,3.31,1.51,1.34,2.64,2.85,3.4,4.53.75,1.69,1.13,3.31,1.13,4.88v40.43c0,1.57-.38,3.19-1.13,4.88-.76,1.69-1.89,3.19-3.4,4.53-1.51,1.34-3.4,2.44-5.66,3.31-2.27.87-4.91,1.31-7.93,1.31ZM1606.32,338.63c-2.38,0-4.21.6-5.49,1.79-1.28,1.19-2.21,2.58-2.79,4.18-.58,1.6-.91,3.18-1,4.75-.09,1.57-.13,2.76-.13,3.57v34.15c0,.76.04,1.93.13,3.53.09,1.6.42,3.19,1,4.79.58,1.6,1.51,2.99,2.79,4.18,1.28,1.19,3.11,1.79,5.49,1.79s4.21-.58,5.49-1.74c1.28-1.16,2.22-2.53,2.83-4.09s.96-3.15,1.05-4.75c.09-1.6.13-2.83.13-3.7v-34.15c0-.87-.04-2.1-.13-3.7-.09-1.6-.44-3.18-1.05-4.75s-1.55-2.93-2.83-4.09c-1.28-1.16-3.11-1.74-5.49-1.74Z"/>
      <path class="cls-1" d="M1631.06,396.05l12.28-47.22c.52-2.21.59-3.89.22-5.05-.38-1.16-.87-2.02-1.48-2.57-.61-.55-1.13-.9-1.57-1.05-.44-.14-.45-.25-.04-.31l12.37-3.31c.87,0,1.38.02,1.52.04.14.03.16.25.04.65-.12.41-.2,1.1-.26,2.09-.06.99.14,2.47.61,4.44l13.5,52.27c.52,1.98,1.19,3.46,2,4.44.81.99,1.55,1.69,2.22,2.09.67.41,1.13.62,1.39.65.26.03.07.1-.57.22h-14.72c-.58-.12-.8-.19-.65-.22.14-.03.42-.19.83-.48.41-.29.78-.78,1.13-1.48.35-.7.44-1.77.26-3.22l-2.35-8.28c-.23-.99-.8-1.9-1.7-2.74-.9-.84-1.96-1.6-3.18-2.27-1.22-.67-2.56-1.19-4.01-1.57-1.45-.38-2.88-.57-4.27-.57-2.03,0-3.85.45-5.45,1.35-1.6.9-2.69,2.43-3.27,4.57l-2.09,8.02c-.41,1.86-.45,3.24-.13,4.14.32.9.7,1.54,1.13,1.92.44.38.75.58.96.61.2.03-.02.1-.65.22h-9.15c-.64-.12-.83-.19-.57-.22.26-.03.73-.25,1.39-.65.67-.41,1.41-1.1,2.22-2.09.81-.99,1.48-2.47,2-4.44ZM1638.12,380.19c-.29,1.05-.33,1.63-.13,1.74.2.12.8-.14,1.79-.78,1.05-.64,2.24-1.13,3.57-1.48,1.34-.35,2.7-.52,4.09-.52,1.51,0,2.99.22,4.44.65,1.45.44,2.67,1.09,3.66,1.96l-9.32-32.76-8.1,31.19Z"/>
      <path class="cls-1" d="M1708.34,336.54v13.77c-.06.35-.17.52-.35.52-.29,0-.68-.59-1.18-1.79-.49-1.19-1.1-2.5-1.83-3.92-.73-1.42-1.61-2.73-2.66-3.92-1.05-1.19-2.29-1.79-3.75-1.79h-4.18c-.58,0-1.02.25-1.31.74-.29.49-.51,1.08-.65,1.74-.15.67-.23,1.32-.26,1.96-.03.64-.04,1.13-.04,1.48v50.62c0,2.03.29,3.56.87,4.57.58,1.02,1.15,1.71,1.7,2.09.55.38.94.58,1.18.61.23.03.03.1-.61.22h-14.72c-.64-.12-.84-.19-.61-.22.23-.03.62-.23,1.18-.61.55-.38,1.12-1.07,1.7-2.09.58-1.02.87-2.54.87-4.57v-50.62c0-.35-.02-.84-.04-1.48-.03-.64-.1-1.29-.22-1.96-.12-.67-.33-1.25-.65-1.74-.32-.49-.77-.74-1.35-.74h-4.53c-1.28,0-2.4.6-3.35,1.79-.96,1.19-1.79,2.48-2.48,3.88-.7,1.39-1.31,2.69-1.83,3.88-.52,1.19-.96,1.79-1.31,1.79-.12,0-.26-.14-.44-.44v-13.77h40.86Z"/>
    </g>
    <g id="Artwork_1" data-name="Artwork 1">
      <path class="cls-1" d="M379.18,226.47c-.94-9.57-1.8-18.58-2.62-27.08-7.36-76.71-10.72-111.73-28.11-138.67-3.02-4.68-6.45-9.1-10.49-13.52-17.16-18.82-40.54-32.2-69.48-39.79C248.3,2.11,225.31-.37,200.17.04c-25.14-.41-48.12,2.07-68.31,7.37-28.94,7.59-52.32,20.97-69.48,39.79-4.04,4.42-7.47,8.85-10.49,13.52-17.39,26.94-20.75,61.96-28.11,138.68-.82,8.49-1.68,17.5-2.62,27.07-6.02,61.32-13.02,124.5-20.83,187.78l-.34,2.73h398.75l-19.57-190.52ZM371.73,199.86c.81,8.5,1.68,17.51,2.62,27.1l18.57,180.83-20.74-21.55-16.56-161.23c-.81-8.26-1.56-16.03-2.27-23.36-6.32-65.9-9.23-96.18-24.06-119.44l16.65-16.3c15.38,25.68,18.73,60.5,25.78,133.95ZM367.15,384.97h-14.65v-142.62l14.65,142.62ZM220.49,252.85l.36-1.92v2.12l28.61,16.18v115.73h-28.61v-131.92l-.36-.2ZM200.17,334.85l-15.87-84.68-2.87-15.3,18.74,7.9,18.73-7.9h0l-2.9,15.44-15.84,84.54ZM215.99,276.88v108.09h-31.94v-109.76l16.13,86.05,15.82-84.38ZM200.17,237.5l-20.08-8.47-7.77-19.55,8.05-19.64,19.79-8.4,19.79,8.4,8.05,19.64-7.65,19.26-.12.29-.26.11-19.81,8.36ZM80.51,209.47l78.15-15.16,15.89-3.08-7.47,18.22,7.23,18.18h0s-15.71-3.04-15.71-3.04l-78.09-15.13ZM113.66,220.84v164.12h-27.5v-169.45l27.5,5.33ZM81.3,214.57v170.39h-28.47v-180.88c.06-.66.13-1.32.19-1.97,3.14-32.74,5.43-56.58,8.73-75.02,3.3-18.45,7.62-31.51,14.83-42.67,1.45-2.24,3-4.41,4.72-6.55v126.48l-26.36,5.11,26.36,5.11ZM86.17,203.41V72.29c7.7-8.21,16.9-15.13,27.5-20.74v146.53l-27.5,5.33ZM179.17,171.38l-2.74,14.53h0s-15.18,2.95-15.18,2.95h0s-21.76-40.13-21.76-40.13l39.68,22.65ZM150.89,149.64V38.47c8.87-1.88,18.33-3.15,28.3-3.81v131.13l-28.3-16.15ZM156.23,189.83l-5.34,1.04v-10.9l5.34,9.86ZM146.02,146.86l-18.95-10.81,18.95,34.95v20.81l-27.5,5.33V49.12c7.5-3.56,15.66-6.48,24.43-8.78,1.01-.26,2.04-.52,3.07-.77v107.29ZM156.17,229.08l-5.28,9.74v-10.77l5.28,1.03ZM118.53,221.78l27.5,5.33v20.69l-18.94,34.92,18.94-10.77v113.02h-27.5v-163.19ZM139.48,270.08l21.69-40.03,11.14,2.15,3.81.74,2.76,14.72c-8.14,4.63-16.27,9.26-24.41,13.89l-15,8.53ZM150.89,269.18c2-1.13,4-2.27,6-3.4l22.3-12.69v131.88h-28.3v-115.79ZM200.17,86.19l18.43,97.79-18.43-7.83-18.43,7.83,18.43-97.79ZM184.05,145.48V34.38c5.42-.27,10.99-.35,16.68-.26h.03s.04,0,.04,0c5.18-.08,10.24-.03,15.18.18v109.52l-15.82-83.9-16.13,85.55ZM260.87,148.73l-21.76,40.12h0s-15.18-2.94-15.18-2.94h0s-2.74-14.54-2.74-14.54l39.68-22.65ZM254.33,146.86V39.3c1.44.32,2.86.67,4.26,1.04,8.31,2.17,16.06,4.92,23.24,8.23v148.57l-27.5-5.33v-20.81l18.95-34.95-18.95,10.81ZM249.46,179.97v10.9l-5.34-1.04,5.34-9.86ZM249.46,149.64l-28.61,16.33V34.57c10.07.6,19.63,1.83,28.61,3.66v111.42ZM224.27,249.39l-2.83-1.6,2.78-14.85.46-.09,14.5-2.8,21.72,40.06-36.62-20.72ZM244.19,229.08l5.27-1.03v10.76l-5.27-9.74ZM254.33,271.99l18.91,10.7-18.91-34.9v-20.68l27.5-5.33v163.19h-27.5v-112.98ZM286.69,220.84l27.5-5.33v169.45h-27.5v-164.12ZM241.76,224.59l-15.72,3.04,7.23-18.19-7.47-18.22,15.89,3.08,78.15,15.16-78.08,15.13ZM286.69,198.09V50.94c10.56,5.43,19.75,12.15,27.5,20.11v132.37l-27.5-5.33ZM319.05,214.57l26.36-5.11-26.36-5.11v-127.93c2.19,2.61,4.13,5.25,5.91,8,13.72,21.26,16.98,49.38,22.69,108.55v191.98h-28.59v-170.39ZM65.97,50.47c16.52-18.1,39.1-31.01,67.13-38.36,19.78-5.19,42.33-7.61,67.04-7.21h.08c24.7-.41,47.26,2.02,67.04,7.21,28.02,7.34,50.61,20.26,67.13,38.36,3.38,3.7,6.3,7.39,8.9,11.24l-16.76,16.41c-1.97-2.73-4.13-5.39-6.56-8.05-14.86-16.29-35.09-27.87-60.14-34.45-17.46-4.57-37.32-6.71-59.05-6.37-21.73-.35-41.59,1.79-59.05,6.37-25.04,6.57-45.28,18.16-60.14,34.45-2.47,2.7-4.67,5.4-6.66,8.18l-17.46-17.1c2.49-3.65,5.29-7.16,8.51-10.68ZM26,226.94c.94-9.57,1.81-18.58,2.62-27.09,7.11-74.03,10.45-108.8,26.13-134.54l17.39,17.03c-14.75,23.24-17.66,53.54-23.97,119.3-.7,7.33-1.45,15.11-2.26,23.36-5.17,52.7-11.19,106.97-17.89,161.33l-22.01,21.6c7.46-61.02,14.19-121.87,19.98-181ZM47.97,253.31v131.66h-14.86c5.44-44.22,10.42-88.38,14.86-131.66ZM8.71,412.12l22.72-22.29h337.47l21.44,22.29H8.71Z"/>
    </g>
  </g>
</svg>